<svg width="65" height="50" viewBox="0 0 1025 657" fill="none" xmlns="http://www.w3.org/2000/svg">
<path opacity="0.15" d="M850.156 96.6274C855.637 102.193 857.748 110.018 860.108 117.375C879.113 176.665 925.944 224.354 979.277 258.417C1001.86 272.846 1029.36 292.197 1024.42 318.067C1021.76 331.96 1010.08 342.187 1001.41 353.503C983.218 377.197 977.316 409.403 985.989 437.767C995.851 470.039 1023.42 500.153 1014.89 532.785C1009.62 552.872 991.76 567.167 974.586 579.453C947.793 598.608 920.146 616.552 891.646 633.286C872.541 644.501 852.216 655.415 829.951 656.837C810.346 658.093 791.142 651.858 772.527 645.706C756.263 640.324 739.589 634.725 726.456 623.945C717.884 616.907 711.052 607.826 701.53 602.068C679.165 588.543 650.438 597.113 624.791 602.905C564.277 616.497 499.511 611.534 441.927 588.894C353.596 554.161 286.27 481.221 199.869 442.085C162.72 425.254 122.31 414.809 87.9119 393.132C68.5324 380.79 51.8783 365.711 38.7001 348.573C12.6938 315.003 -1.36963 272.202 2.69141 230.304C6.75238 188.407 29.5079 148.033 65.2465 124.381C103.506 99.0629 151.827 94.3341 195.358 79.1352C240.289 63.4173 280.278 36.4174 324.779 19.5864C360.811 5.989 400.024 -0.684599 439.541 0.055469C479.058 0.795537 517.875 8.93049 553.144 23.8632C601.606 44.3684 650.708 92.2083 704.681 95.8406C743.13 98.3515 820.129 66.1458 850.156 96.6274Z" fill="#191970"/>
<g filter="url(#filter0_d)">
<path d="M298.476 239V97H391.676V109.4H312.476V161.6H379.276V173.2H312.476V239H298.476ZM416.249 239V97H430.249V239H416.249ZM591.659 239V123.4L540.259 213.2H531.459L479.859 123.4V239H465.859V97H480.259L535.659 194.2L591.459 97H605.659V239H591.659ZM736.649 226.6V239H641.249V97H734.849V109.4H655.249V160.6H724.649V172.4H655.249V226.6H736.649Z" fill="white"/>
</g>
<path opacity="0.1" d="M485.104 591.426C213.511 564.936 -3.20329 508.018 1.06013 464.296C5.32356 420.573 228.95 406.603 500.543 433.093C772.137 459.582 988.851 516.5 984.587 560.223C980.324 603.945 756.698 617.915 485.104 591.426Z" fill="#6C63FF"/>
<path d="M156.946 347.089C156.946 347.089 171.505 297.638 154.216 261.247C146.864 246.027 144.646 228.833 147.897 212.245C149.503 204.383 151.826 196.684 154.836 189.245" stroke="#373C82" stroke-width="2" stroke-miterlimit="10"/>
<path d="M144.027 166.254C144.027 172.314 155.026 189.885 155.026 189.885C155.026 189.885 166.025 172.314 166.025 166.254C166.137 164.745 165.936 163.23 165.436 161.802C164.935 160.374 164.145 159.065 163.116 157.957C162.086 156.848 160.839 155.964 159.452 155.359C158.066 154.754 156.569 154.442 155.056 154.442C153.543 154.442 152.047 154.754 150.66 155.359C149.273 155.964 148.026 156.848 146.997 157.957C145.967 159.065 145.178 160.374 144.677 161.802C144.176 163.23 143.976 164.745 144.087 166.254H144.027Z" fill="#191970"/>
<path d="M125.939 199.815C129.229 204.905 148.027 213.695 148.027 213.695C148.027 213.695 147.687 192.985 144.398 187.895C142.724 185.67 140.27 184.162 137.529 183.676C134.788 183.19 131.965 183.761 129.628 185.274C127.292 186.788 125.616 189.131 124.939 191.831C124.262 194.531 124.633 197.388 125.979 199.825L125.939 199.815Z" fill="#191970"/>
<path d="M126.729 257.187C132.138 259.917 152.727 258.027 152.727 258.027C152.727 258.027 141.978 240.316 136.568 237.586C134.003 236.521 131.131 236.466 128.527 237.432C125.923 238.397 123.781 240.312 122.53 242.792C121.279 245.272 121.013 248.133 121.785 250.801C122.556 253.469 124.308 255.747 126.689 257.177L126.729 257.187Z" fill="#191970"/>
<path d="M137.098 300.498C141.968 304.098 162.626 305.728 162.626 305.728C162.626 305.728 155.026 286.457 150.147 282.847C147.799 281.42 145.001 280.924 142.306 281.456C139.61 281.988 137.211 283.51 135.581 285.722C133.951 287.934 133.207 290.676 133.498 293.409C133.788 296.142 135.09 298.667 137.148 300.488L137.098 300.498Z" fill="#191970"/>
<path d="M171.025 214.865C166.675 219.086 146.427 223.466 146.427 223.466C146.427 223.466 151.427 203.355 155.736 199.125C156.742 197.998 157.969 197.09 159.341 196.457C160.713 195.825 162.2 195.482 163.711 195.45C165.221 195.418 166.722 195.697 168.119 196.271C169.517 196.844 170.781 197.7 171.834 198.783C172.886 199.867 173.704 201.156 174.237 202.569C174.769 203.983 175.005 205.491 174.929 207C174.853 208.509 174.468 209.986 173.796 211.339C173.124 212.693 172.181 213.893 171.025 214.865Z" fill="#191970"/>
<path d="M182.514 265.627C177.105 268.357 156.516 266.467 156.516 266.467C156.516 266.467 167.265 248.756 172.675 246.026C175.24 244.961 178.113 244.906 180.716 245.872C183.32 246.837 185.462 248.752 186.713 251.232C187.964 253.712 188.23 256.573 187.458 259.241C186.687 261.91 184.935 264.187 182.554 265.617L182.514 265.627Z" fill="#191970"/>
<path d="M186.914 316.498C182.044 320.098 161.386 321.728 161.386 321.728C161.386 321.728 168.985 302.458 173.865 298.848C175.009 297.836 176.35 297.073 177.805 296.609C179.259 296.144 180.795 295.987 182.313 296.148C183.831 296.31 185.3 296.785 186.624 297.545C187.949 298.305 189.1 299.332 190.006 300.561C190.912 301.791 191.552 303.195 191.886 304.685C192.219 306.175 192.239 307.719 191.943 309.217C191.647 310.715 191.043 312.135 190.169 313.387C189.294 314.639 188.169 315.695 186.864 316.488L186.914 316.498Z" fill="#191970"/>
<path opacity="0.1" d="M144.027 166.254C144.027 172.314 155.026 189.885 155.026 189.885C155.026 189.885 166.025 172.314 166.025 166.254C166.137 164.745 165.936 163.23 165.436 161.802C164.935 160.374 164.145 159.065 163.116 157.957C162.086 156.848 160.839 155.964 159.452 155.359C158.066 154.754 156.569 154.442 155.056 154.442C153.543 154.442 152.047 154.754 150.66 155.359C149.273 155.964 148.026 156.848 146.997 157.957C145.967 159.065 145.178 160.374 144.677 161.802C144.176 163.23 143.976 164.745 144.087 166.254H144.027Z" fill="#191970"/>
<path opacity="0.1" d="M125.939 199.815C129.229 204.905 148.027 213.695 148.027 213.695C148.027 213.695 147.687 192.985 144.398 187.895C142.724 185.67 140.27 184.162 137.529 183.676C134.788 183.19 131.965 183.761 129.628 185.274C127.292 186.788 125.616 189.131 124.939 191.831C124.262 194.531 124.633 197.388 125.979 199.825L125.939 199.815Z" fill="#191970"/>
<path opacity="0.1" d="M126.729 257.187C132.138 259.917 152.727 258.027 152.727 258.027C152.727 258.027 141.978 240.316 136.568 237.586C134.003 236.521 131.131 236.466 128.527 237.432C125.923 238.397 123.781 240.312 122.53 242.792C121.279 245.272 121.013 248.133 121.785 250.801C122.556 253.469 124.308 255.747 126.689 257.177L126.729 257.187Z" fill="#191970"/>
<path opacity="0.1" d="M137.098 300.498C141.968 304.098 162.626 305.728 162.626 305.728C162.626 305.728 155.026 286.457 150.147 282.847C147.799 281.42 145.001 280.924 142.306 281.456C139.61 281.988 137.211 283.51 135.581 285.722C133.951 287.934 133.207 290.676 133.498 293.409C133.788 296.142 135.09 298.667 137.148 300.488L137.098 300.498Z" fill="#191970"/>
<path opacity="0.1" d="M171.025 214.865C166.675 219.086 146.427 223.466 146.427 223.466C146.427 223.466 151.427 203.355 155.736 199.125C156.742 197.998 157.969 197.09 159.341 196.457C160.713 195.825 162.2 195.482 163.711 195.45C165.221 195.418 166.722 195.697 168.119 196.271C169.517 196.844 170.781 197.7 171.834 198.783C172.886 199.867 173.704 201.156 174.237 202.569C174.769 203.983 175.005 205.491 174.929 207C174.853 208.509 174.468 209.986 173.796 211.339C173.124 212.693 172.181 213.893 171.025 214.865Z" fill="#191970"/>
<path opacity="0.1" d="M182.514 265.627C177.105 268.357 156.516 266.467 156.516 266.467C156.516 266.467 167.265 248.756 172.675 246.026C175.24 244.961 178.113 244.906 180.716 245.872C183.32 246.837 185.462 248.752 186.713 251.232C187.964 253.712 188.23 256.573 187.458 259.241C186.687 261.91 184.935 264.187 182.554 265.617L182.514 265.627Z" fill="#191970"/>
<path opacity="0.1" d="M186.914 316.498C182.044 320.098 161.386 321.728 161.386 321.728C161.386 321.728 168.985 302.458 173.865 298.848C175.009 297.836 176.35 297.073 177.805 296.609C179.259 296.144 180.795 295.987 182.313 296.148C183.831 296.31 185.3 296.785 186.624 297.545C187.949 298.305 189.1 299.332 190.006 300.561C190.912 301.791 191.552 303.195 191.886 304.685C192.219 306.175 192.239 307.719 191.943 309.217C191.647 310.715 191.043 312.135 190.169 313.387C189.294 314.639 188.169 315.695 186.864 316.488L186.914 316.498Z" fill="#191970"/>
<path d="M95.9513 426.091C95.9513 426.091 110.51 376.64 93.2216 340.249C85.8687 325.029 83.6512 307.835 86.9021 291.247C88.5078 283.385 90.8307 275.686 93.8415 268.247" stroke="#373C82" stroke-width="2" stroke-miterlimit="10"/>
<path d="M83.033 245.256C83.033 251.316 94.0319 268.887 94.0319 268.887C94.0319 268.887 105.031 251.316 105.031 245.256C105.143 243.747 104.942 242.232 104.441 240.804C103.94 239.376 103.151 238.067 102.121 236.959C101.092 235.85 99.8447 234.966 98.458 234.361C97.0713 233.756 95.5748 233.444 94.062 233.444C92.5492 233.444 91.0526 233.756 89.6659 234.361C88.2792 234.966 87.032 235.85 86.0025 236.959C84.973 238.067 84.1833 239.376 83.6827 240.804C83.182 242.232 82.9814 243.747 83.093 245.256H83.033Z" fill="#191970"/>
<path d="M64.9445 278.817C68.2342 283.907 86.9924 292.687 86.9924 292.687C86.9924 292.687 86.6525 271.977 83.3627 266.887C82.6331 265.565 81.6393 264.408 80.4432 263.488C79.2471 262.567 77.8743 261.902 76.4102 261.535C74.9462 261.168 73.4223 261.106 71.9333 261.353C70.4443 261.6 69.0221 262.151 67.7552 262.972C66.4884 263.792 65.4039 264.865 64.5694 266.123C63.7348 267.381 63.1681 268.797 62.9045 270.283C62.6408 271.769 62.6858 273.294 63.0368 274.762C63.3877 276.231 64.0371 277.611 64.9445 278.817Z" fill="#191970"/>
<path d="M65.7343 336.189C71.1438 338.919 91.732 337.029 91.732 337.029C91.732 337.029 80.983 319.318 75.5735 316.588C74.2767 315.809 72.8333 315.307 71.3334 315.111C69.8336 314.916 68.3095 315.031 66.8564 315.452C65.4034 315.872 64.0526 316.587 62.8885 317.553C61.7245 318.519 60.7722 319.715 60.0911 321.066C59.4099 322.416 59.0147 323.893 58.93 325.403C58.8454 326.914 59.073 328.425 59.5989 329.844C60.1248 331.262 60.9375 332.557 61.9863 333.647C63.0351 334.737 64.2975 335.599 65.6944 336.179L65.7343 336.189Z" fill="#191970"/>
<path d="M76.1031 379.5C80.9727 383.1 101.631 384.73 101.631 384.73C101.631 384.73 94.0316 365.459 89.1521 361.849C86.8038 360.422 84.0066 359.926 81.3108 360.458C78.615 360.99 76.216 362.512 74.5859 364.724C72.9558 366.936 72.2127 369.678 72.5027 372.411C72.7927 375.144 74.095 377.669 76.1532 379.49L76.1031 379.5Z" fill="#191970"/>
<path d="M110.03 293.867C105.681 298.088 85.4325 302.468 85.4325 302.468C85.4325 302.468 90.4321 282.357 94.7417 278.127C96.8699 276.336 99.5973 275.419 102.375 275.558C105.153 275.698 107.774 276.885 109.712 278.88C111.65 280.875 112.76 283.53 112.819 286.311C112.878 289.092 111.882 291.792 110.03 293.867Z" fill="#191970"/>
<path d="M121.519 344.629C116.11 347.359 95.5216 345.469 95.5216 345.469C95.5216 345.469 106.271 327.758 111.68 325.028C114.245 323.963 117.118 323.908 119.722 324.874C122.325 325.839 124.468 327.754 125.718 330.234C126.969 332.714 127.235 335.575 126.464 338.243C125.692 340.912 123.94 343.189 121.559 344.619L121.519 344.629Z" fill="#191970"/>
<path d="M125.919 395.5C121.049 399.1 100.391 400.73 100.391 400.73C100.391 400.73 107.991 381.46 112.87 377.85C114.014 376.838 115.356 376.075 116.81 375.611C118.265 375.146 119.8 374.989 121.318 375.15C122.837 375.312 124.305 375.787 125.629 376.547C126.954 377.307 128.106 378.334 129.012 379.563C129.917 380.793 130.557 382.197 130.891 383.687C131.224 385.177 131.244 386.721 130.948 388.219C130.653 389.717 130.048 391.137 129.174 392.389C128.299 393.641 127.174 394.697 125.869 395.49L125.919 395.5Z" fill="#191970"/>
<path opacity="0.1" d="M83.033 245.256C83.033 251.316 94.0319 268.887 94.0319 268.887C94.0319 268.887 105.031 251.316 105.031 245.256C105.143 243.747 104.942 242.232 104.441 240.804C103.94 239.376 103.151 238.067 102.121 236.959C101.092 235.85 99.8447 234.966 98.458 234.361C97.0713 233.756 95.5748 233.444 94.062 233.444C92.5492 233.444 91.0526 233.756 89.6659 234.361C88.2792 234.966 87.032 235.85 86.0025 236.959C84.973 238.067 84.1833 239.376 83.6827 240.804C83.182 242.232 82.9814 243.747 83.093 245.256H83.033Z" fill="#191970"/>
<path opacity="0.1" d="M64.9445 278.817C68.2342 283.907 86.9924 292.687 86.9924 292.687C86.9924 292.687 86.6525 271.977 83.3627 266.887C82.6331 265.565 81.6393 264.408 80.4432 263.488C79.2471 262.567 77.8743 261.902 76.4102 261.535C74.9462 261.168 73.4223 261.106 71.9333 261.353C70.4443 261.6 69.0221 262.151 67.7552 262.972C66.4884 263.792 65.4039 264.865 64.5694 266.123C63.7348 267.381 63.1681 268.797 62.9045 270.283C62.6408 271.769 62.6858 273.294 63.0368 274.762C63.3877 276.231 64.0371 277.611 64.9445 278.817Z" fill="#191970"/>
<path opacity="0.1" d="M65.7343 336.189C71.1438 338.919 91.732 337.029 91.732 337.029C91.732 337.029 80.983 319.318 75.5735 316.588C74.2767 315.809 72.8333 315.307 71.3334 315.111C69.8336 314.916 68.3095 315.031 66.8564 315.452C65.4034 315.872 64.0526 316.587 62.8885 317.553C61.7245 318.519 60.7722 319.715 60.0911 321.066C59.4099 322.416 59.0147 323.893 58.93 325.403C58.8454 326.914 59.073 328.425 59.5989 329.844C60.1248 331.262 60.9375 332.557 61.9863 333.647C63.0351 334.737 64.2975 335.599 65.6944 336.179L65.7343 336.189Z" fill="#191970"/>
<path opacity="0.1" d="M76.1031 379.5C80.9727 383.1 101.631 384.73 101.631 384.73C101.631 384.73 94.0316 365.459 89.1521 361.849C86.8038 360.422 84.0066 359.926 81.3108 360.458C78.615 360.99 76.216 362.512 74.5859 364.724C72.9558 366.936 72.2127 369.678 72.5027 372.411C72.7927 375.144 74.095 377.669 76.1532 379.49L76.1031 379.5Z" fill="#191970"/>
<path opacity="0.1" d="M110.03 293.867C105.681 298.088 85.4325 302.468 85.4325 302.468C85.4325 302.468 90.4321 282.357 94.7417 278.127C96.8699 276.336 99.5973 275.419 102.375 275.558C105.153 275.698 107.774 276.885 109.712 278.88C111.65 280.875 112.76 283.53 112.819 286.311C112.878 289.092 111.882 291.792 110.03 293.867Z" fill="#191970"/>
<path opacity="0.1" d="M121.519 344.629C116.11 347.359 95.5216 345.469 95.5216 345.469C95.5216 345.469 106.271 327.758 111.68 325.028C114.245 323.963 117.118 323.908 119.722 324.874C122.325 325.839 124.468 327.754 125.718 330.234C126.969 332.714 127.235 335.575 126.464 338.243C125.692 340.912 123.94 343.189 121.559 344.619L121.519 344.629Z" fill="#191970"/>
<path opacity="0.1" d="M125.919 395.5C121.049 399.1 100.391 400.73 100.391 400.73C100.391 400.73 107.991 381.46 112.87 377.85C114.014 376.838 115.356 376.075 116.81 375.611C118.265 375.146 119.8 374.989 121.318 375.15C122.837 375.312 124.305 375.787 125.629 376.547C126.954 377.307 128.106 378.334 129.012 379.563C129.917 380.793 130.557 382.197 130.891 383.687C131.224 385.177 131.244 386.721 130.948 388.219C130.653 389.717 130.048 391.137 129.174 392.389C128.299 393.641 127.174 394.697 125.869 395.49L125.919 395.5Z" fill="#191970"/>
<path d="M43.856 471.262C25.3676 433.361 29.1874 371.669 31.1572 350.729C31.5872 346.149 31.9271 343.519 31.9271 343.519C31.9271 343.519 48.2257 340.949 42.2162 321.218C39.2766 311.558 49.7155 306.218 61.1145 303.288C69.2648 301.338 77.5811 300.163 85.9524 299.778L243.828 290.027C265.477 255.667 308.073 261.187 308.073 261.187C308.073 261.187 346.07 257.237 373.007 256.827C377.095 253.224 381.577 250.095 386.366 247.496C389.22 245.781 392.259 244.396 395.425 243.366C399.275 242.255 403.331 242.061 407.269 242.799C411.207 243.537 414.917 245.187 418.103 247.616C419.656 248.733 420.921 250.204 421.793 251.906C422.129 252.681 422.38 253.489 422.543 254.316C422.949 255.729 423.283 257.16 423.543 258.607C423.777 259.303 424.114 259.96 424.543 260.557C425.622 262.087 427.482 263.237 427.722 265.087C427.728 265.193 427.728 265.3 427.722 265.407C427.92 265.76 428.052 266.146 428.112 266.547C428.184 267.37 428.007 268.196 427.602 268.917C427.542 269.037 427.472 269.147 427.402 269.257C428.732 271.182 429.817 273.264 430.632 275.457C431.002 275.658 431.359 275.882 431.702 276.127L432.002 276.347V276.957L432.172 277.087L432.542 286.937L432.332 287.097C432.029 291.692 430.643 296.15 428.286 300.107C425.93 304.063 422.67 307.404 418.773 309.858C418.643 310.488 418.523 311.128 418.403 311.798C417.854 315.028 417.606 318.302 417.663 321.578H417.833C422.533 319.578 430.572 322.518 437.481 325.948H526.994C509.535 303.488 488.177 286.067 488.177 286.067V266.327C503.436 265.567 637.484 329.968 666.871 344.189L668.171 344.819L819.208 349.499C846.566 349.329 870.483 353.349 891.202 359.899C925.823 370.776 956.934 390.654 981.354 417.501C999.192 437.081 1007.01 453.262 1007.01 453.262L1006.84 454.622L1007.01 454.972L1006.77 455.182L1002.7 487.302L999.902 509.403C1019.36 521.983 994.153 527.023 994.153 527.023C970.155 547.604 931.548 546.754 931.548 546.754C922.119 559.624 894.671 557.904 894.671 557.904H750.594C748.35 544.675 745.345 531.586 741.595 518.703C735.445 562.994 700.498 596.925 658.322 596.925C655.194 596.923 652.068 596.733 648.963 596.355C645.858 596.733 642.732 596.923 639.604 596.925C596.938 596.925 561.681 562.194 556.131 517.163H549.082C550.398 527.224 552.685 537.134 555.911 546.754C426.412 509.013 185.424 491.002 185.424 491.002C184.424 481.502 183.324 472.322 182.134 463.512C172.205 488.162 149.697 505.373 123.499 505.373C121.119 505.37 118.742 505.223 116.38 504.933C114.018 505.223 111.64 505.37 109.26 505.373C78.153 505.373 52.2653 481.102 46.4258 448.921C45.6526 454.601 45.2118 460.321 45.1059 466.052C46.2158 471.512 47.1858 475.002 47.3158 475.492C46.5359 474.065 45.796 472.605 45.096 471.112C45.096 471.692 45.096 472.292 45.096 472.892C45.336 473.892 45.5059 474.452 45.5559 474.642L45.1159 473.822C45.1159 474.262 45.1159 474.692 45.1159 475.132C45.2159 475.172 44.6859 473.732 43.856 471.262Z" fill="url(#paint0_linear)"/>
<path d="M58.9651 335.079H355.839V454.852H58.9651V335.079Z" fill="#6F7D95"/>
<path d="M431.322 278.987L389.156 373.46L305.653 368.399L302.283 329.598L299.754 284.047L417.823 275.607L431.322 278.987Z" fill="#313C51"/>
<path d="M431.322 278.987C431.322 278.987 415.324 263.807 395.895 260.427C376.467 257.047 311.553 263.797 311.553 263.797L302.273 279.797L304.013 287.417L431.322 278.987Z" fill="#006400"/>
<path d="M272.346 327.488H571.75V415.211H272.346V327.488Z" fill="#313C51"/>
<path d="M346.01 387.17C338.1 360.719 353.869 343.339 353.869 343.339L380.007 325.098C380.028 325.16 380.055 325.221 380.087 325.278C383.486 321.294 385.919 316.578 387.196 311.498C387.276 311.178 387.346 310.848 387.426 310.498C385.037 308.722 382.944 306.579 381.227 304.148C376.967 301.538 375.067 297.338 374.347 293.147C371.607 289.08 369.424 284.664 367.858 280.017C367.599 279.266 367.379 278.501 367.198 277.727C366.694 276.286 366.47 274.762 366.538 273.237C366.751 271.539 367.316 269.904 368.198 268.437C372.597 260.437 380.517 254.866 388.546 250.326C391.353 248.64 394.341 247.278 397.455 246.266C401.24 245.175 405.228 244.985 409.1 245.711C412.972 246.436 416.62 248.058 419.753 250.446C421.281 251.545 422.525 252.992 423.383 254.667C423.714 255.428 423.962 256.222 424.123 257.037C424.511 258.426 424.828 259.835 425.073 261.257C425.291 261.936 425.607 262.58 426.013 263.167C427.083 264.667 428.902 265.797 429.142 267.627C429.148 267.733 429.148 267.84 429.142 267.947C429.335 268.294 429.464 268.674 429.522 269.067C429.596 269.876 429.422 270.689 429.022 271.397C428.962 271.517 428.892 271.627 428.822 271.737C430.131 273.631 431.199 275.68 432.002 277.837C432.369 278.035 432.723 278.256 433.062 278.497L433.352 278.707V279.307L433.522 279.437L433.892 289.127L433.692 289.287C433.397 293.807 432.035 298.193 429.718 302.085C427.401 305.977 424.195 309.264 420.363 311.678C420.233 312.298 420.113 312.928 420.003 313.588C419.399 317.077 419.158 320.619 419.283 324.158C419.323 323.853 419.323 323.544 419.283 323.238C426.513 319.968 442.281 329.008 448.631 333.009C449.593 333.465 450.491 334.046 451.3 334.739L451.41 334.819C455.78 338.359 464.409 348.199 471.259 373.49C480.758 408.78 479.768 416.781 486.687 424.961C493.607 433.141 500.476 490.773 500.476 490.773L486.547 494.523L484.767 488.802C468.209 503.903 421.843 511.173 421.843 511.173L420.423 506.763C413.314 509.323 401.425 505.433 401.425 505.433C384.046 499.293 377.537 483.712 364.928 463.162C352.319 442.611 346.01 387.17 346.01 387.17ZM416.103 493.503L384.006 393.93C381.097 409.39 393.935 433.741 395.075 449.661C395.785 459.902 407.704 480.252 416.103 493.503Z" fill="url(#paint1_linear)"/>
<path d="M375.947 282.397C375.947 282.397 370.358 303.688 386.946 307.398C403.535 311.108 392.606 297.828 392.606 297.828L376.607 282.237L375.947 282.397Z" fill="#472727"/>
<path d="M445.301 333.138C445.301 333.138 457.64 338.139 466.709 371.819C475.778 405.5 474.878 413.101 481.408 420.931C487.937 428.761 494.627 483.702 494.627 483.702L481.568 487.222L470.199 450.501L438.931 353.499L445.301 333.138Z" fill="#DDE0E4"/>
<path opacity="0.05" d="M445.301 333.138C445.301 333.138 457.64 338.139 466.709 371.819C475.778 405.5 474.878 413.101 481.408 420.931C487.937 428.761 494.627 483.702 494.627 483.702L481.568 487.222L470.199 450.501L438.931 353.499L445.301 333.138Z" fill="black"/>
<path d="M376.787 329.338C376.787 329.338 428.442 355.599 420.883 338.469C417.143 330.008 417.283 321.238 418.373 314.468C418.995 310.48 420.086 306.58 421.623 302.848C421.623 302.848 386.506 275.067 388.566 297.748C389.059 302.629 388.721 307.559 387.566 312.328C384.526 324.358 376.787 329.338 376.787 329.338Z" fill="#DB8B8B"/>
<path opacity="0.1" d="M387.566 312.368C390.888 315.036 394.794 316.88 398.965 317.749C403.136 318.618 407.453 318.487 411.564 317.368C413.968 316.721 416.273 315.749 418.413 314.478C419.035 310.49 420.126 306.59 421.663 302.858C421.663 302.858 386.546 275.077 388.606 297.758C389.09 302.651 388.738 307.592 387.566 312.368Z" fill="black"/>
<path d="M378.015 296.946C374.132 282.525 382.674 267.688 397.093 263.805C411.512 259.922 426.348 268.464 430.23 282.885C434.113 297.305 425.571 312.143 411.152 316.026C396.733 319.909 381.897 311.366 378.015 296.946Z" fill="#DB8B8B"/>
<path opacity="0.1" d="M417.703 276.727C418.445 277.18 419.271 277.479 420.131 277.605C420.991 277.731 421.868 277.682 422.708 277.46C423.549 277.239 424.336 276.85 425.022 276.317C425.709 275.783 426.28 275.117 426.703 274.357C427.074 273.679 427.234 272.906 427.163 272.137C426.933 270.397 425.213 269.317 424.163 267.877C422.533 265.547 422.843 262.357 421.663 259.767C420.851 258.185 419.68 256.815 418.243 255.767C415.321 253.482 411.9 251.921 408.259 251.212C404.618 250.503 400.861 250.665 397.295 251.686C394.378 252.638 391.579 253.924 388.956 255.517C381.437 259.807 374.027 265.057 369.958 272.687C369.133 274.087 368.609 275.643 368.418 277.257C368.373 279 368.679 280.735 369.318 282.357C370.822 286.839 372.917 291.1 375.547 295.028C376.427 293.935 377.532 293.045 378.787 292.417C379.42 292.118 380.132 292.025 380.821 292.153C381.51 292.28 382.142 292.621 382.626 293.127C383.496 294.238 384.026 296.358 385.346 295.858C386.206 295.538 386.196 294.348 386.156 293.427C385.976 289.427 388.156 285.657 391.086 282.957C394.016 280.257 397.645 278.477 401.225 276.727C403.795 275.467 407.224 272.577 410.044 272.067C413.544 271.417 415.194 275.177 417.703 276.727Z" fill="black"/>
<path d="M417.333 275.357C418.075 275.81 418.901 276.109 419.761 276.235C420.621 276.361 421.497 276.312 422.338 276.09C423.179 275.869 423.966 275.48 424.652 274.947C425.339 274.413 425.91 273.747 426.333 272.987C426.703 272.309 426.864 271.536 426.792 270.767C426.563 269.027 424.843 267.947 423.793 266.507C422.163 264.177 422.473 260.987 421.293 258.397C420.481 256.815 419.31 255.445 417.873 254.397C414.951 252.112 411.53 250.551 407.889 249.842C404.248 249.133 400.491 249.295 396.925 250.316C394.007 251.268 391.209 252.554 388.586 254.146C381.067 258.437 373.657 263.687 369.588 271.317C368.763 272.717 368.239 274.273 368.048 275.887C368.003 277.63 368.309 279.365 368.948 280.987C370.452 285.469 372.547 289.73 375.177 293.658C376.057 292.565 377.162 291.674 378.417 291.047C379.05 290.748 379.762 290.655 380.451 290.783C381.14 290.91 381.772 291.251 382.256 291.757C383.126 292.868 383.656 294.988 384.976 294.488C385.836 294.168 385.826 292.978 385.786 292.057C385.606 288.057 387.786 284.287 390.716 281.587C393.645 278.887 397.275 277.107 400.855 275.357C403.425 274.097 406.854 271.207 409.674 270.697C413.174 270.037 414.824 273.807 417.333 275.357Z" fill="#472727"/>
<path d="M403.175 332.918C403.175 332.918 381.787 328.728 380.857 325.298L356.399 342.569C356.399 342.569 341.68 359.059 349.209 384.3C349.209 384.3 355.339 437.191 367.258 456.822C379.177 476.452 386.026 501.883 402.355 507.823C402.355 507.823 418.053 497.703 423.233 497.823C423.233 497.823 396.645 459.292 395.505 444.121C394.366 428.951 382.217 405.69 384.876 390.97L420.873 502.873C420.873 502.873 478.868 493.873 484.748 474.622C484.748 474.622 479.748 467.112 480.678 459.502C481.608 451.891 458.8 394.64 458.8 394.64L447.881 334.939C447.881 334.939 426.283 319.848 417.683 323.768C417.723 323.708 419.283 331.158 403.175 332.918Z" fill="#DDE0E4"/>
<g opacity="0.1">
<path opacity="0.1" d="M395.385 286.497C400.665 279.297 410.734 285.207 412.384 286.237L414.974 285.977C417.233 283.517 424.163 276.977 430.672 281.787L430.952 281.997L431.342 291.227L431.062 291.447C429.182 292.899 427.05 293.991 424.773 294.667C423.331 295.091 421.81 295.167 420.333 294.888C419.241 294.635 418.217 294.146 417.334 293.455C416.451 292.764 415.731 291.888 415.223 290.887L413.874 290.977L412.874 290.787C412.674 291.851 412.249 292.859 411.628 293.746C411.008 294.632 410.205 295.376 409.274 295.928C404.804 298.458 398.275 295.928 398.005 295.878L397.665 295.748L395.265 286.817L395.385 286.497ZM398.775 294.617C400.105 295.067 405.124 296.548 408.494 294.617C409.333 294.092 410.04 293.38 410.56 292.537C411.08 291.694 411.4 290.743 411.494 289.757L411.614 289.027L413.804 289.477L416.003 289.397L416.213 289.817C416.615 290.726 417.219 291.53 417.98 292.168C418.741 292.806 419.639 293.261 420.603 293.497C424.373 294.307 428.732 291.387 429.872 290.557L429.542 282.757C423.883 278.947 417.643 285.127 415.844 287.147L415.654 287.357L412.004 287.717L411.784 287.567C411.684 287.507 402.615 281.417 397.445 286.317C397.189 286.555 396.951 286.812 396.735 287.087L398.775 294.617Z" fill="black"/>
<path opacity="0.1" d="M379.007 291.137L396.005 289.727L397.405 289.457L396.775 287.097C396.991 286.822 397.229 286.565 397.485 286.327L395.425 286.527L381.517 287.887L379.007 291.137Z" fill="black"/>
</g>
<path d="M395.205 285.857C400.485 278.657 410.554 284.567 412.204 285.597L414.794 285.337C417.053 282.877 423.983 276.337 430.492 281.147L430.772 281.357L431.162 290.587L430.882 290.807C429.002 292.259 426.87 293.351 424.593 294.027C423.151 294.451 421.63 294.527 420.153 294.247C419.061 293.995 418.037 293.506 417.154 292.815C416.271 292.124 415.551 291.248 415.044 290.247L413.694 290.337L412.694 290.147C412.494 291.211 412.069 292.219 411.448 293.106C410.828 293.992 410.025 294.736 409.094 295.287C404.625 297.818 398.095 295.287 397.825 295.237L397.485 295.107L395.085 286.177L395.205 285.857ZM398.595 293.977C399.925 294.427 404.945 295.908 408.314 293.977C409.153 293.452 409.86 292.74 410.38 291.897C410.901 291.054 411.22 290.103 411.314 289.117L411.434 288.387L413.624 288.837L415.794 288.697L416.004 289.117C416.398 290.031 416.997 290.842 417.755 291.487C418.513 292.132 419.408 292.594 420.373 292.837C424.143 293.647 428.503 290.727 429.642 289.897L429.312 282.097C423.653 278.287 417.413 284.467 415.614 286.487L415.424 286.697L411.774 287.057L411.554 286.907C411.454 286.847 402.385 280.757 397.215 285.657C396.959 285.895 396.721 286.152 396.505 286.427L398.595 293.977Z" fill="#472727"/>
<path d="M378.847 290.497L395.785 289.087L397.185 288.817L396.555 286.457C396.771 286.182 397.009 285.925 397.265 285.687L395.205 285.887L381.297 287.247L378.847 290.497Z" fill="#472727"/>
<path d="M495.007 395.81H791.881V515.583H495.007V395.81Z" fill="#6F7D95"/>
<path d="M656.012 594.025C610.26 594.025 573.17 553.43 573.17 503.353C573.17 453.276 610.26 412.681 656.012 412.681C701.765 412.681 738.855 453.276 738.855 503.353C738.855 553.43 701.765 594.025 656.012 594.025Z" fill="#313C51"/>
<path opacity="0.05" d="M656.012 594.025C610.26 594.025 573.17 553.43 573.17 503.353C573.17 453.276 610.26 412.681 656.012 412.681C701.765 412.681 738.855 453.276 738.855 503.353C738.855 553.43 701.765 594.025 656.012 594.025Z" fill="black"/>
<path d="M637.604 594.025C591.852 594.025 554.762 553.43 554.762 503.353C554.762 453.276 591.852 412.681 637.604 412.681C683.357 412.681 720.447 453.276 720.447 503.353C720.447 553.43 683.357 594.025 637.604 594.025Z" fill="#313C51"/>
<path opacity="0.05" d="M639.444 540.634C619.11 540.634 602.627 524.148 602.627 503.813C602.627 483.477 619.11 466.992 639.444 466.992C659.777 466.992 676.26 483.477 676.26 503.813C676.26 524.148 659.777 540.634 639.444 540.634Z" fill="black"/>
<path d="M639.444 514.863C633.342 514.863 628.395 509.916 628.395 503.813C628.395 497.71 633.342 492.763 639.444 492.763C645.546 492.763 650.493 497.71 650.493 503.813C650.493 509.916 645.546 514.863 639.444 514.863Z" stroke="#6F7D95" stroke-width="2" stroke-miterlimit="10"/>
<path d="M639.444 487.242C637.92 487.242 636.684 486.007 636.684 484.482C636.684 482.958 637.92 481.722 639.444 481.722C640.968 481.722 642.204 482.958 642.204 484.482C642.204 486.007 640.968 487.242 639.444 487.242Z" fill="#6F7D95"/>
<path d="M622.568 491.927C621.401 490.947 621.248 489.206 622.228 488.038C623.208 486.87 624.948 486.718 626.116 487.698C627.284 488.678 627.436 490.419 626.456 491.586C625.476 492.754 623.736 492.906 622.568 491.927Z" fill="#6F7D95"/>
<path d="M615.979 505.292C615.715 503.791 616.717 502.359 618.218 502.095C619.719 501.83 621.15 502.832 621.415 504.333C621.68 505.835 620.677 507.266 619.176 507.531C617.675 507.795 616.244 506.793 615.979 505.292Z" fill="#6F7D95"/>
<path d="M625.207 521.167C623.887 520.405 623.435 518.717 624.197 517.397C624.959 516.077 626.647 515.624 627.967 516.387C629.287 517.149 629.739 518.837 628.977 520.157C628.215 521.477 626.527 521.929 625.207 521.167Z" fill="#6F7D95"/>
<path d="M639.737 522.661C639.216 521.229 639.954 519.645 641.387 519.124C642.819 518.602 644.402 519.341 644.924 520.773C645.445 522.206 644.707 523.789 643.274 524.311C641.842 524.832 640.258 524.094 639.737 522.661Z" fill="#6F7D95"/>
<path d="M653.765 514.137C652.333 513.616 651.594 512.032 652.115 510.599C652.637 509.167 654.22 508.429 655.653 508.95C657.085 509.471 657.823 511.055 657.302 512.487C656.781 513.92 655.197 514.658 653.765 514.137Z" fill="#6F7D95"/>
<path d="M652.478 496.894C651.716 495.574 652.168 493.886 653.488 493.124C654.808 492.362 656.496 492.814 657.258 494.134C658.02 495.454 657.568 497.142 656.248 497.904C654.928 498.667 653.24 498.214 652.478 496.894Z" fill="#6F7D95"/>
<path d="M42.3464 433.281C45.1762 452.822 53.0454 474.212 53.0454 474.212C52.9921 472.879 52.9588 471.562 52.9455 470.262C52.9455 468.582 52.9455 466.922 52.9455 465.262C53.9454 411.4 83.2928 378.17 102.221 362.259C107.141 358.067 112.432 354.331 118.03 351.099H66.5843C66.5843 351.099 46.346 392.43 42.1263 412.671C40.9064 418.351 41.2465 425.681 42.3464 433.281Z" fill="#006400"/>
<path opacity="0.05" d="M42.3464 433.281C45.1762 452.822 53.0454 474.212 53.0454 474.212C52.9921 472.879 52.9588 471.562 52.9455 470.262C52.9455 468.582 52.9455 466.922 52.9455 465.262C53.9454 411.4 83.2928 378.17 102.221 362.259C107.141 358.067 112.432 354.331 118.03 351.099H66.5843C66.5843 351.099 46.346 392.43 42.1263 412.671C40.9064 418.351 41.2465 425.681 42.3464 433.281Z" fill="black"/>
<path d="M130.059 503.993C95.2624 503.993 67.0543 473.118 67.0543 435.031C67.0543 396.945 95.2624 366.069 130.059 366.069C164.855 366.069 193.063 396.945 193.063 435.031C193.063 473.118 164.855 503.993 130.059 503.993Z" fill="#313C51"/>
<path opacity="0.05" d="M130.059 503.993C95.2624 503.993 67.0543 473.118 67.0543 435.031C67.0543 396.945 95.2624 366.069 130.059 366.069C164.855 366.069 193.063 396.945 193.063 435.031C193.063 473.118 164.855 503.993 130.059 503.993Z" fill="black"/>
<path d="M116.06 503.993C81.2633 503.993 53.0552 473.118 53.0552 435.031C53.0552 396.945 81.2633 366.069 116.06 366.069C150.856 366.069 179.064 396.945 179.064 435.031C179.064 473.118 150.856 503.993 116.06 503.993Z" fill="#313C51"/>
<path opacity="0.05" d="M117.46 463.382C101.997 463.382 89.4622 450.845 89.4622 435.381C89.4622 419.917 101.997 407.38 117.46 407.38C132.922 407.38 145.457 419.917 145.457 435.381C145.457 450.845 132.922 463.382 117.46 463.382Z" fill="black"/>
<path d="M117.46 443.781C112.821 443.781 109.06 440.02 109.06 435.381C109.06 430.742 112.821 426.981 117.46 426.981C122.098 426.981 125.859 430.742 125.859 435.381C125.859 440.02 122.098 443.781 117.46 443.781Z" stroke="#6F7D95" stroke-width="2" stroke-miterlimit="10"/>
<path d="M117.46 422.781C116.3 422.781 115.36 421.841 115.36 420.681C115.36 419.521 116.3 418.581 117.46 418.581C118.619 418.581 119.559 419.521 119.559 420.681C119.559 421.841 118.619 422.781 117.46 422.781Z" fill="#6F7D95"/>
<path d="M104.618 426.341C103.73 425.596 103.614 424.271 104.359 423.383C105.105 422.494 106.429 422.378 107.318 423.124C108.206 423.869 108.322 425.194 107.576 426.082C106.831 426.971 105.507 427.087 104.618 426.341Z" fill="#6F7D95"/>
<path d="M99.6146 436.515C99.4133 435.373 100.176 434.283 101.318 434.082C102.46 433.881 103.549 434.643 103.75 435.785C103.952 436.928 103.189 438.017 102.047 438.218C100.905 438.42 99.816 437.657 99.6146 436.515Z" fill="#6F7D95"/>
<path d="M106.623 448.586C105.619 448.006 105.275 446.722 105.855 445.717C106.435 444.713 107.719 444.369 108.723 444.949C109.727 445.529 110.072 446.813 109.492 447.818C108.912 448.822 107.628 449.166 106.623 448.586Z" fill="#6F7D95"/>
<path d="M117.678 449.719C117.281 448.629 117.843 447.424 118.933 447.027C120.022 446.631 121.227 447.193 121.624 448.283C122.021 449.372 121.459 450.578 120.369 450.974C119.279 451.371 118.074 450.809 117.678 449.719Z" fill="#6F7D95"/>
<path d="M128.351 443.228C127.261 442.831 126.699 441.626 127.096 440.536C127.492 439.446 128.697 438.884 129.787 439.281C130.877 439.677 131.438 440.883 131.042 441.972C130.645 443.062 129.44 443.624 128.351 443.228Z" fill="#6F7D95"/>
<path d="M127.359 430.117C126.779 429.112 127.123 427.828 128.128 427.248C129.132 426.668 130.416 427.012 130.996 428.017C131.576 429.021 131.232 430.306 130.228 430.886C129.223 431.465 127.939 431.121 127.359 430.117Z" fill="#6F7D95"/>
<path d="M991.333 512.633L998.952 452.742H908.71L862.324 494.073L885.092 547.214C885.092 547.214 976.954 532.034 991.333 512.633Z" fill="#006400"/>
<path opacity="0.05" d="M862.294 494.073L885.062 547.214C885.062 547.214 976.954 532.034 991.333 512.633L991.663 510.023L998.662 454.642L998.732 454.092L998.902 452.752H908.66L862.294 494.073Z" fill="black"/>
<path d="M488.667 268.867V288.267C488.667 288.267 535.303 326.268 546.402 362.119C548.34 367.941 549.071 374.096 548.552 380.21C544.333 419.851 669.982 348.149 669.982 348.149L664.392 345.429C635.505 331.498 503.676 268.107 488.667 268.867Z" fill="#7597CE"/>
<path d="M382.397 362.499C382.397 362.499 338.72 341.039 331.711 325.158C330.771 323.028 329.881 320.878 328.841 318.788C324.512 310.078 315.412 289.647 319.992 279.837C325.891 267.187 305.653 281.527 305.653 281.527L317.462 341.399L346.14 357.399L383.246 362.499" fill="#006400"/>
<path opacity="0.05" d="M382.397 362.499C382.397 362.499 338.72 341.039 331.711 325.158C330.771 323.028 329.881 320.878 328.841 318.788C324.512 310.078 315.412 289.647 319.992 279.837C325.891 267.187 305.653 281.527 305.653 281.527L317.462 341.399L346.14 357.399L383.246 362.499" fill="black"/>
<path opacity="0.05" d="M862.295 494.073L885.063 547.214C885.063 547.214 976.955 532.034 991.333 512.633L991.663 510.023C991.293 509.773 990.903 509.513 990.493 509.263C990.493 509.263 962.666 531.194 899.401 536.264C899.401 536.264 861.405 505.893 923.019 472.162C923.019 472.162 976.615 473.842 998.693 454.652L998.933 454.452L998.763 454.102C998.616 453.815 998.379 453.368 998.053 452.762H908.691L862.295 494.073Z" fill="black"/>
<path opacity="0.05" d="M548.552 380.2C544.333 419.851 669.982 348.149 669.982 348.149L664.392 345.429C660.692 349.369 645.924 362.659 616.396 361.219C597.398 360.289 568.55 361.139 546.352 362.109C548.307 367.927 549.055 374.083 548.552 380.2Z" fill="black"/>
<path opacity="0.05" d="M494.996 395.81V515.583H550.152C546.512 487.722 548.612 447.111 583.989 423.831C597.183 415.205 612.504 410.392 628.26 409.923C644.016 409.454 659.596 413.346 673.281 421.171C696.469 434.411 722.396 461.332 738.875 515.583H791.87V395.81H494.996Z" fill="black"/>
<path opacity="0.05" d="M42.3464 433.281C44.4262 446.501 47.7659 459.342 52.9354 470.282C53.6021 471.755 54.3286 473.192 55.1152 474.592C54.9852 474.102 54.0354 470.682 52.9354 465.302C47.5759 439.101 38.4067 366.599 99.8413 362.459C100.641 362.409 101.431 362.359 102.221 362.329C107.138 358.112 112.429 354.353 118.03 351.099H66.5843C66.5843 351.099 46.346 392.43 42.1263 412.671C40.9064 418.351 41.2465 425.681 42.3464 433.281Z" fill="black"/>
<path d="M53.4451 473.772C52.6452 470.882 24.1476 366.639 98.1711 361.649C173.235 356.589 182.514 413.1 190.943 489.862C190.943 489.862 427.922 507.573 555.291 544.694C555.291 544.694 524.714 460.892 582.289 422.991C595.483 414.365 610.804 409.552 626.56 409.083C642.316 408.613 657.896 412.506 671.581 420.331C699.978 436.551 732.506 473.332 746.734 555.654H888.442C888.442 555.654 915.439 557.344 924.709 544.654C924.709 544.654 962.705 545.494 986.273 525.253C986.273 525.253 1011.57 520.193 991.333 507.543C991.333 507.543 962.655 529.473 899.401 534.544C899.401 534.544 861.404 504.173 923.019 470.442C923.019 470.442 977.014 472.132 998.922 452.732C998.922 452.732 991.233 436.821 973.684 417.571C949.682 391.165 919.099 371.608 885.062 360.899C862.127 353.808 838.222 350.359 814.218 350.679L665.361 346.039C665.361 346.039 650.983 364.599 616.446 362.909C581.909 361.219 514.395 365.439 514.395 365.439H513.725L374.817 359.149C370.828 358.586 366.883 357.751 363.008 356.649C342.87 351.179 304.673 334.589 311.562 288.257L93.1216 301.758C84.8885 302.136 76.7097 303.291 68.6938 305.208C57.4747 308.088 47.2156 313.348 50.1053 322.848C56.0048 342.249 39.9862 344.779 39.9862 344.779C39.9862 344.779 39.6462 347.369 39.2263 351.869C37.2264 373.089 33.2969 436.891 53.4451 473.772Z" fill="#006400"/>
<path opacity="0.05" d="M721.447 381.05C721.447 381.05 812.539 381.89 872.433 435.051H838.696C838.696 435.051 744.235 410.59 721.467 391.19L721.447 381.05Z" fill="black"/>
<path d="M722.297 380.2C722.297 380.2 813.389 381.04 873.284 434.201H839.547C839.547 434.201 745.085 409.74 722.317 390.34L722.297 380.2Z" fill="#FFEC9F"/>
<path opacity="0.05" d="M884.223 361.749V384.42L960.956 419.851L972.835 418.421C948.836 392.017 918.256 372.46 884.223 361.749Z" fill="black"/>
<path d="M885.072 360.909V383.58L961.816 419.001L973.695 417.571C949.691 391.169 919.109 371.615 885.072 360.909Z" fill="#FFEC9F"/>
<path opacity="0.05" d="M776.272 463.712C776.272 463.712 817.598 489.012 821.818 544.714H798.2C798.2 544.714 788.921 483.982 761.933 463.712H776.272Z" fill="black"/>
<path opacity="0.05" d="M287.935 465.402L502.166 490.703C502.166 490.703 516.335 400.5 513.715 365.409L374.807 359.119C370.823 358.565 366.881 357.74 363.008 356.649V365.019L258.428 339.719C258.428 339.719 240.709 365.859 287.935 465.402Z" fill="black"/>
<path d="M311.553 263.797C311.553 263.797 266.007 257.897 245.769 296.698L310.903 294.187L311.553 263.797Z" fill="#006400"/>
<path opacity="0.05" d="M248.928 310.298C250.718 315.908 249.368 322.078 238.999 326.348C230.37 329.908 220.251 325.788 217.301 316.938C215.581 311.778 216.761 305.938 226.06 301.188C235.36 296.438 245.799 300.498 248.928 310.298Z" fill="black"/>
<path d="M997.322 465.382C997.322 465.382 943.267 493.383 904.47 482.782" stroke="#006400" stroke-miterlimit="10"/>
<path d="M995.413 480.502C995.413 480.502 960.486 507.443 889.892 501.183" stroke="#006400" stroke-miterlimit="10"/>
<path d="M993.803 493.193C993.803 493.193 959.156 523.263 887.962 513.733" stroke="#006400" stroke-miterlimit="10"/>
<path opacity="0.05" d="M248.378 292.167C248.378 292.167 276.556 316.498 302.274 327.498C302.274 327.498 263.217 334.449 248.378 292.167Z" fill="black"/>
<path opacity="0.1" d="M546.892 363.779C546.892 363.779 413.184 376.41 362.588 364.599C362.588 364.599 359.888 366.389 375.997 359.169L546.892 363.779Z" fill="black"/>
<path opacity="0.05" d="M39.2166 351.869C47.5458 346.399 60.7546 335.049 58.9548 322.418C58.0549 316.088 62.5344 310.168 68.6839 305.198C57.4649 308.078 47.2058 313.338 50.0956 322.838C55.9951 342.239 39.9764 344.769 39.9764 344.769C39.9764 344.769 39.6465 347.369 39.2166 351.869Z" fill="black"/>
<path opacity="0.02" d="M738.505 410.32L749.754 446.031L750.024 446.731C751.534 447.071 783.411 454.402 790.291 456.652H790.981L773.172 409.5L772.662 408.14L766.873 408.51L738.505 410.32Z" fill="black"/>
<path d="M884.415 533.29V538.3H886.468V534.96H893.928V538.3H895.981V533.3L884.415 533.29Z" fill="#E82127"/>
<path d="M886.255 531.67H894.136C894.652 531.573 895.124 531.367 895.502 531.075C895.88 530.782 896.148 530.414 896.278 530.01H884.126C884.257 530.413 884.525 530.781 884.903 531.073C885.28 531.366 885.752 531.572 886.268 531.67" fill="#E82127"/>
<path d="M878.222 538.3C878.668 538.164 879.066 537.945 879.379 537.661C879.693 537.376 879.912 537.036 880.02 536.67H870.826V530.01H868.76V538.3H878.209" fill="#E82127"/>
<path d="M853.459 531.64H860.74C861.258 531.538 861.735 531.335 862.127 531.05C862.52 530.765 862.814 530.407 862.984 530.01H851.38V534.87H860.842V536.59H853.42C852.854 536.708 852.326 536.919 851.871 537.208C851.416 537.498 851.044 537.86 850.781 538.27H862.856V533.27H853.408V531.63" fill="#E82127"/>
<path d="M835.492 531.66H843.372C843.889 531.563 844.361 531.357 844.739 531.065C845.116 530.772 845.385 530.404 845.515 530H833.362C833.493 530.403 833.762 530.771 834.14 531.063C834.517 531.356 834.989 531.562 835.505 531.66" fill="#E82127"/>
<path d="M835.492 534.93H843.372C843.889 534.834 844.362 534.629 844.74 534.336C845.118 534.043 845.386 533.674 845.515 533.27H833.362C833.493 533.673 833.762 534.041 834.14 534.333C834.517 534.626 834.989 534.832 835.505 534.93" fill="#E82127"/>
<path d="M835.492 538.3H843.372C843.889 538.203 844.361 537.997 844.739 537.704C845.116 537.412 845.385 537.044 845.515 536.64H833.362C833.493 537.043 833.762 537.411 834.14 537.703C834.517 537.996 834.989 538.202 835.505 538.3" fill="#E82127"/>
<path d="M815 530.02C815.135 530.419 815.403 530.783 815.778 531.073C816.152 531.363 816.619 531.569 817.13 531.67H820.445L820.611 531.72V538.28H822.676V531.72L822.868 531.67H826.183C826.692 531.566 827.157 531.359 827.531 531.07C827.905 530.78 828.174 530.418 828.313 530.02H815Z" fill="#E82127"/>
<path d="M240.899 415.331C240.899 415.331 223.4 449.681 237.659 468.472C251.918 487.262 236.359 538.474 236.359 538.474" stroke="#191970" stroke-miterlimit="10"/>
<path d="M235.719 404.64C235.719 411.26 240.579 416.641 240.579 416.641C240.579 416.641 245.438 411.27 245.438 404.64C245.438 398.01 240.579 392.64 240.579 392.64C240.579 392.64 235.719 398.02 235.719 404.64Z" fill="#191970"/>
<path d="M231.83 415.331C231.83 415.331 249.328 449.681 235.069 468.472C220.811 487.262 236.369 538.474 236.369 538.474" stroke="#191970" stroke-miterlimit="10"/>
<path d="M237.019 404.64C237.019 411.26 232.16 416.641 232.16 416.641C232.16 416.641 227.3 411.27 227.3 404.64C227.3 398.01 232.16 392.64 232.16 392.64C232.16 392.64 237.019 398.02 237.019 404.64Z" fill="#191970"/>
<path opacity="0.1" d="M237.019 404.64C237.019 411.26 232.16 416.641 232.16 416.641C232.16 416.641 227.3 411.27 227.3 404.64C227.3 398.01 232.16 392.64 232.16 392.64C232.16 392.64 237.019 398.02 237.019 404.64Z" fill="black"/>
<path d="M224.7 415.331C224.7 415.331 207.202 449.681 221.461 468.472C235.719 487.262 220.161 538.474 220.161 538.474" stroke="#191970" stroke-miterlimit="10"/>
<path d="M219.521 404.64C219.521 411.26 224.38 416.641 224.38 416.641C224.38 416.641 229.24 411.27 229.24 404.64C229.24 398.01 224.38 392.64 224.38 392.64C224.38 392.64 219.521 398.02 219.521 404.64Z" fill="#191970"/>
<path d="M222.24 432.161C226.83 436.931 234.059 437.431 234.059 437.431C234.059 437.431 233.839 430.191 229.25 425.431C224.66 420.671 217.431 420.161 217.431 420.161C217.431 420.161 217.651 427.391 222.24 432.161Z" fill="#191970"/>
<path d="M221.791 455.862C226.38 460.632 233.61 461.132 233.61 461.132C233.61 461.132 233.39 453.892 228.8 449.131C224.211 444.371 217.021 443.851 217.021 443.851C217.021 443.851 217.201 451.081 221.791 455.862Z" fill="#191970"/>
<path d="M246.678 468.892C242.339 473.892 242.489 481.132 242.489 481.132C242.489 481.132 249.678 480.262 254.018 475.262C258.357 470.262 258.207 463.022 258.207 463.022C258.207 463.022 251.018 463.892 246.678 468.892Z" fill="#191970"/>
<path d="M242.649 418.361C237.129 422.021 235.339 429.041 235.339 429.041C235.339 429.041 242.509 430.121 248.018 426.501C253.528 422.881 255.328 415.821 255.328 415.821C255.328 415.821 248.168 414.701 242.649 418.361Z" fill="#191970"/>
<path opacity="0.1" d="M242.649 418.361C237.129 422.021 235.339 429.041 235.339 429.041C235.339 429.041 242.509 430.121 248.018 426.501C253.528 422.881 255.328 415.821 255.328 415.821C255.328 415.821 248.168 414.701 242.649 418.361Z" fill="black"/>
<path d="M215.631 415.331C215.631 415.331 233.129 449.681 218.871 468.472C204.612 487.262 220.171 538.474 220.171 538.474" stroke="#191970" stroke-miterlimit="10"/>
<path d="M220.811 404.64C220.811 411.26 215.951 416.641 215.951 416.641C215.951 416.641 211.091 411.27 211.091 404.64C211.091 398.01 215.951 392.64 215.951 392.64C215.951 392.64 220.811 398.02 220.811 404.64Z" fill="#191970"/>
<path opacity="0.1" d="M220.811 404.64C220.811 411.26 215.951 416.641 215.951 416.641C215.951 416.641 211.091 411.27 211.091 404.64C211.091 398.01 215.951 392.64 215.951 392.64C215.951 392.64 220.811 398.02 220.811 404.64Z" fill="black"/>
<path d="M219.411 432.671C224.06 437.391 224.41 444.671 224.41 444.671C224.41 444.671 217.181 444.261 212.531 439.541C207.882 434.821 207.532 427.541 207.532 427.541C207.532 427.541 214.771 427.951 219.411 432.671Z" fill="#191970"/>
<path opacity="0.1" d="M219.411 432.671C224.06 437.391 224.41 444.671 224.41 444.671C224.41 444.671 217.181 444.261 212.531 439.541C207.882 434.821 207.532 427.541 207.532 427.541C207.532 427.541 214.771 427.951 219.411 432.671Z" fill="black"/>
<path d="M210.302 465.502C214.951 470.222 215.301 477.502 215.301 477.502C215.301 477.502 208.072 477.092 203.422 472.372C198.773 467.652 198.423 460.372 198.423 460.372C198.423 460.372 205.652 460.762 210.302 465.502Z" fill="#191970"/>
<path d="M223.71 458.272C223.71 458.272 213.181 441.671 198.393 441.271" stroke="#191970" stroke-miterlimit="10"/>
<path d="M231.91 448.241C231.91 448.241 242.439 431.641 257.228 431.241" stroke="#191970" stroke-miterlimit="10"/>
<path d="M233.28 471.942C233.28 471.942 222.751 455.342 207.962 454.942" stroke="#191970" stroke-miterlimit="10"/>
<path d="M198.882 443.911C197.375 443.911 196.153 442.689 196.153 441.181C196.153 439.673 197.375 438.451 198.882 438.451C200.39 438.451 201.612 439.673 201.612 441.181C201.612 442.689 200.39 443.911 198.882 443.911Z" fill="#191970"/>
<path d="M256.977 434.111C255.47 434.111 254.248 432.889 254.248 431.381C254.248 429.873 255.47 428.651 256.977 428.651C258.485 428.651 259.707 429.873 259.707 431.381C259.707 432.889 258.485 434.111 256.977 434.111Z" fill="#191970"/>
<path d="M225.53 477.412C225.53 477.412 236.059 460.812 250.848 460.412" stroke="#191970" stroke-miterlimit="10"/>
<path d="M250.598 463.282C249.09 463.282 247.868 462.06 247.868 460.552C247.868 459.044 249.09 457.822 250.598 457.822C252.106 457.822 253.328 459.044 253.328 460.552C253.328 462.06 252.106 463.282 250.598 463.282Z" fill="#191970"/>
<path d="M207.762 457.812C206.254 457.812 205.032 456.589 205.032 455.082C205.032 453.574 206.254 452.352 207.762 452.352C209.269 452.352 210.492 453.574 210.492 455.082C210.492 456.589 209.269 457.812 207.762 457.812Z" fill="#191970"/>
<path d="M167.316 518.503C167.316 518.503 192.693 513.423 199.463 506.653C206.232 499.883 236.689 488.072 240.069 496.503C243.449 504.933 285.755 533.764 257.018 538.834C228.28 543.904 189.334 545.604 180.874 542.214C172.415 538.824 167.316 518.503 167.316 518.503Z" fill="#A8A8A8"/>
<path opacity="0.2" d="M257.018 535.694C228.25 540.774 189.334 542.464 180.874 539.074C174.435 536.494 169.955 524.073 168.185 518.353L167.336 518.533C167.336 518.533 172.415 538.844 180.874 542.224C189.334 545.604 228.25 543.914 257.018 538.844C265.317 537.374 267.697 533.934 266.797 529.584C266.067 532.414 263.177 534.604 257.018 535.694Z" fill="black"/>
<g filter="url(#filter1_d)">
<path d="M286.889 434.36C285.353 434.36 283.925 434.108 282.605 433.604C281.309 433.076 280.169 432.308 279.185 431.3L280.193 429.572C281.249 430.556 282.305 431.276 283.361 431.732C284.441 432.164 285.581 432.38 286.781 432.38C288.221 432.38 289.397 432.092 290.309 431.516C291.245 430.916 291.713 430.064 291.713 428.96C291.713 428.216 291.485 427.652 291.029 427.268C290.597 426.86 289.961 426.536 289.121 426.296C288.305 426.056 287.321 425.78 286.169 425.468C284.873 425.108 283.781 424.736 282.893 424.352C282.029 423.944 281.369 423.44 280.913 422.84C280.481 422.216 280.265 421.412 280.265 420.428C280.265 419.228 280.565 418.22 281.165 417.404C281.789 416.588 282.629 415.976 283.685 415.568C284.765 415.136 285.965 414.92 287.285 414.92C288.725 414.92 289.997 415.148 291.101 415.604C292.205 416.06 293.105 416.696 293.801 417.512L292.613 419.168C291.965 418.4 291.161 417.836 290.201 417.476C289.265 417.092 288.245 416.9 287.141 416.9C286.373 416.9 285.641 417.008 284.945 417.224C284.249 417.416 283.673 417.752 283.217 418.232C282.785 418.688 282.569 419.324 282.569 420.14C282.569 421.148 282.941 421.844 283.685 422.228C284.429 422.612 285.557 423.02 287.069 423.452C288.485 423.836 289.721 424.22 290.777 424.604C291.833 424.988 292.649 425.504 293.225 426.152C293.801 426.776 294.089 427.652 294.089 428.78C294.089 430.532 293.429 431.9 292.109 432.884C290.789 433.868 289.049 434.36 286.889 434.36ZM306.128 434.36C304.328 434.36 302.72 433.916 301.304 433.028C299.912 432.14 298.82 430.964 298.028 429.5C297.236 428.012 296.84 426.404 296.84 424.676C296.84 422.924 297.236 421.316 298.028 419.852C298.844 418.364 299.948 417.176 301.34 416.288C302.756 415.376 304.352 414.92 306.128 414.92C307.928 414.92 309.524 415.376 310.916 416.288C312.332 417.176 313.436 418.364 314.228 419.852C315.044 421.316 315.452 422.924 315.452 424.676C315.452 426.404 315.056 428.012 314.264 429.5C313.472 430.964 312.368 432.14 310.952 433.028C309.56 433.916 307.952 434.36 306.128 434.36ZM299.324 424.712C299.324 426.104 299.624 427.376 300.224 428.528C300.848 429.656 301.676 430.556 302.708 431.228C303.74 431.876 304.88 432.2 306.128 432.2C307.376 432.2 308.516 431.864 309.548 431.192C310.58 430.52 311.408 429.608 312.032 428.456C312.656 427.304 312.968 426.032 312.968 424.64C312.968 423.248 312.656 421.976 312.032 420.824C311.408 419.672 310.58 418.76 309.548 418.088C308.516 417.416 307.376 417.08 306.128 417.08C304.904 417.08 303.776 417.428 302.744 418.124C301.712 418.796 300.884 419.708 300.26 420.86C299.636 422.012 299.324 423.296 299.324 424.712ZM328.726 434.36C327.262 434.36 325.906 433.988 324.658 433.244C323.41 432.476 322.438 431.516 321.742 430.364V434H319.546V407.72H321.994V419.168C322.834 417.896 323.842 416.876 325.018 416.108C326.194 415.316 327.562 414.92 329.122 414.92C330.442 414.92 331.618 415.196 332.65 415.748C333.706 416.3 334.606 417.044 335.35 417.98C336.094 418.892 336.658 419.936 337.042 421.112C337.426 422.264 337.618 423.452 337.618 424.676C337.618 426.428 337.222 428.036 336.43 429.5C335.662 430.964 334.606 432.14 333.262 433.028C331.918 433.916 330.406 434.36 328.726 434.36ZM328.15 432.2C329.518 432.2 330.718 431.84 331.75 431.12C332.806 430.4 333.634 429.476 334.234 428.348C334.834 427.196 335.134 425.972 335.134 424.676C335.134 423.356 334.846 422.12 334.27 420.968C333.718 419.816 332.938 418.88 331.93 418.16C330.922 417.44 329.758 417.08 328.438 417.08C326.974 417.08 325.678 417.548 324.55 418.484C323.446 419.42 322.594 420.512 321.994 421.76V427.592C322.114 428.456 322.51 429.236 323.182 429.932C323.854 430.628 324.646 431.18 325.558 431.588C326.47 431.996 327.334 432.2 328.15 432.2ZM351.124 417.404C349.492 417.452 348.052 417.908 346.804 418.772C345.58 419.636 344.716 420.824 344.212 422.336V434H341.764V415.244H344.068V419.744C344.716 418.424 345.568 417.356 346.624 416.54C347.704 415.724 348.844 415.268 350.044 415.172C350.284 415.148 350.488 415.136 350.656 415.136C350.824 415.136 350.98 415.148 351.124 415.172V417.404ZM361.923 434.36C360.123 434.36 358.515 433.916 357.099 433.028C355.683 432.14 354.567 430.952 353.751 429.464C352.935 427.976 352.527 426.344 352.527 424.568C352.527 422.816 352.923 421.208 353.715 419.744C354.531 418.28 355.647 417.116 357.063 416.252C358.479 415.364 360.087 414.92 361.887 414.92C363.735 414.92 365.355 415.364 366.747 416.252C368.139 417.14 369.219 418.316 369.987 419.78C370.779 421.22 371.175 422.804 371.175 424.532C371.175 424.916 371.163 425.24 371.139 425.504H355.083C355.203 426.848 355.587 428.048 356.235 429.104C356.883 430.136 357.711 430.964 358.719 431.588C359.727 432.188 360.831 432.488 362.031 432.488C363.255 432.488 364.407 432.176 365.487 431.552C366.567 430.928 367.335 430.112 367.791 429.104L369.915 429.68C369.531 430.592 368.931 431.408 368.115 432.128C367.323 432.824 366.399 433.376 365.343 433.784C364.287 434.168 363.147 434.36 361.923 434.36ZM355.011 423.74H368.871C368.775 422.396 368.403 421.208 367.755 420.176C367.107 419.12 366.279 418.304 365.271 417.728C364.263 417.128 363.147 416.828 361.923 416.828C360.699 416.828 359.583 417.128 358.575 417.728C357.567 418.304 356.739 419.12 356.091 420.176C355.467 421.208 355.107 422.396 355.011 423.74ZM393.488 417.404C391.856 417.452 390.416 417.908 389.168 418.772C387.944 419.636 387.08 420.824 386.576 422.336V434H384.128V415.244H386.432V419.744C387.08 418.424 387.932 417.356 388.988 416.54C390.068 415.724 391.208 415.268 392.408 415.172C392.648 415.148 392.852 415.136 393.02 415.136C393.188 415.136 393.344 415.148 393.488 415.172V417.404ZM396.569 426.26V415.244H399.017V425.828C399.017 430.076 400.469 432.2 403.373 432.2C404.813 432.2 406.157 431.732 407.405 430.796C408.677 429.86 409.589 428.612 410.141 427.052V415.244H412.589V431.048C412.589 431.696 412.877 432.032 413.453 432.056V434C413.165 434.048 412.937 434.072 412.769 434.072C412.625 434.072 412.469 434.072 412.301 434.072C411.797 434.024 411.365 433.832 411.005 433.496C410.669 433.16 410.501 432.752 410.501 432.272L410.429 429.752C409.613 431.216 408.497 432.356 407.081 433.172C405.689 433.964 404.177 434.36 402.545 434.36C398.561 434.36 396.569 431.66 396.569 426.26ZM426.224 434.36C424.424 434.36 422.816 433.916 421.4 433.028C419.984 432.14 418.868 430.952 418.052 429.464C417.236 427.976 416.828 426.344 416.828 424.568C416.828 422.816 417.224 421.208 418.016 419.744C418.832 418.28 419.948 417.116 421.364 416.252C422.78 415.364 424.388 414.92 426.188 414.92C428.036 414.92 429.656 415.364 431.048 416.252C432.44 417.14 433.52 418.316 434.288 419.78C435.08 421.22 435.476 422.804 435.476 424.532C435.476 424.916 435.464 425.24 435.44 425.504H419.384C419.504 426.848 419.888 428.048 420.536 429.104C421.184 430.136 422.012 430.964 423.02 431.588C424.028 432.188 425.132 432.488 426.332 432.488C427.556 432.488 428.708 432.176 429.788 431.552C430.868 430.928 431.636 430.112 432.092 429.104L434.216 429.68C433.832 430.592 433.232 431.408 432.416 432.128C431.624 432.824 430.7 433.376 429.644 433.784C428.588 434.168 427.448 434.36 426.224 434.36ZM419.312 423.74H433.172C433.076 422.396 432.704 421.208 432.056 420.176C431.408 419.12 430.58 418.304 429.572 417.728C428.564 417.128 427.448 416.828 426.224 416.828C425 416.828 423.884 417.128 422.876 417.728C421.868 418.304 421.04 419.12 420.392 420.176C419.768 421.208 419.408 422.396 419.312 423.74ZM437.993 424.676C437.993 422.9 438.353 421.28 439.073 419.816C439.817 418.328 440.837 417.14 442.133 416.252C443.429 415.364 444.905 414.92 446.561 414.92C448.121 414.92 449.513 415.34 450.737 416.18C451.985 416.996 452.957 417.992 453.653 419.168V407.72H456.101V431.048C456.101 431.696 456.389 432.032 456.965 432.056V434C456.485 434.072 456.113 434.096 455.849 434.072C455.321 434.048 454.865 433.856 454.481 433.496C454.121 433.112 453.941 432.68 453.941 432.2V430.364C453.197 431.588 452.189 432.56 450.917 433.28C449.645 434 448.325 434.36 446.957 434.36C445.661 434.36 444.461 434.096 443.357 433.568C442.253 433.04 441.293 432.32 440.477 431.408C439.685 430.496 439.073 429.464 438.641 428.312C438.209 427.136 437.993 425.924 437.993 424.676ZM453.653 427.556V421.76C453.341 420.896 452.837 420.116 452.141 419.42C451.445 418.7 450.653 418.136 449.765 417.728C448.901 417.296 448.037 417.08 447.173 417.08C445.829 417.08 444.653 417.452 443.645 418.196C442.661 418.916 441.893 419.864 441.341 421.04C440.789 422.192 440.513 423.404 440.513 424.676C440.513 426.02 440.813 427.268 441.413 428.42C442.037 429.572 442.877 430.496 443.933 431.192C444.989 431.864 446.177 432.2 447.497 432.2C448.313 432.2 449.165 431.996 450.053 431.588C450.965 431.156 451.757 430.592 452.429 429.896C453.125 429.2 453.533 428.42 453.653 427.556ZM460.135 428.6C460.135 427.448 460.471 426.452 461.143 425.612C461.815 424.748 462.739 424.076 463.915 423.596C465.115 423.116 466.495 422.876 468.055 422.876C468.967 422.876 469.915 422.96 470.899 423.128C471.883 423.272 472.759 423.476 473.527 423.74V422.156C473.527 420.572 473.059 419.312 472.123 418.376C471.187 417.44 469.891 416.972 468.235 416.972C467.251 416.972 466.267 417.164 465.283 417.548C464.299 417.908 463.279 418.448 462.223 419.168L461.287 417.44C462.511 416.6 463.711 415.976 464.887 415.568C466.063 415.136 467.263 414.92 468.487 414.92C470.791 414.92 472.615 415.58 473.959 416.9C475.303 418.22 475.975 420.044 475.975 422.372V431.048C475.975 431.696 476.275 432.032 476.875 432.056V434C476.347 434.072 475.975 434.096 475.759 434.072C475.159 434.048 474.703 433.856 474.391 433.496C474.079 433.136 473.911 432.752 473.887 432.344L473.851 430.976C473.011 432.056 471.919 432.896 470.575 433.496C469.231 434.072 467.863 434.36 466.471 434.36C465.247 434.36 464.155 434.108 463.195 433.604C462.235 433.076 461.479 432.38 460.927 431.516C460.399 430.628 460.135 429.656 460.135 428.6ZM472.699 430.04C473.251 429.392 473.527 428.792 473.527 428.24V425.504C471.871 424.856 470.143 424.532 468.343 424.532C466.591 424.532 465.175 424.88 464.095 425.576C463.015 426.272 462.475 427.22 462.475 428.42C462.475 429.452 462.871 430.388 463.663 431.228C464.479 432.068 465.607 432.488 467.047 432.488C468.223 432.488 469.315 432.26 470.323 431.804C471.355 431.348 472.147 430.76 472.699 430.04ZM487.42 434.36C485.884 434.36 484.456 434.108 483.136 433.604C481.84 433.076 480.7 432.308 479.716 431.3L480.724 429.572C481.78 430.556 482.836 431.276 483.892 431.732C484.972 432.164 486.112 432.38 487.312 432.38C488.752 432.38 489.928 432.092 490.84 431.516C491.776 430.916 492.244 430.064 492.244 428.96C492.244 428.216 492.016 427.652 491.56 427.268C491.128 426.86 490.492 426.536 489.652 426.296C488.836 426.056 487.852 425.78 486.7 425.468C485.404 425.108 484.312 424.736 483.424 424.352C482.56 423.944 481.9 423.44 481.444 422.84C481.012 422.216 480.796 421.412 480.796 420.428C480.796 419.228 481.096 418.22 481.696 417.404C482.32 416.588 483.16 415.976 484.216 415.568C485.296 415.136 486.496 414.92 487.816 414.92C489.256 414.92 490.528 415.148 491.632 415.604C492.736 416.06 493.636 416.696 494.332 417.512L493.144 419.168C492.496 418.4 491.692 417.836 490.732 417.476C489.796 417.092 488.776 416.9 487.672 416.9C486.904 416.9 486.172 417.008 485.476 417.224C484.78 417.416 484.204 417.752 483.748 418.232C483.316 418.688 483.1 419.324 483.1 420.14C483.1 421.148 483.472 421.844 484.216 422.228C484.96 422.612 486.088 423.02 487.6 423.452C489.016 423.836 490.252 424.22 491.308 424.604C492.364 424.988 493.18 425.504 493.756 426.152C494.332 426.776 494.62 427.652 494.62 428.78C494.62 430.532 493.96 431.9 492.64 432.884C491.32 433.868 489.58 434.36 487.42 434.36Z" fill="white"/>
</g>
<defs>
<filter id="filter0_d" x="294.476" y="97" width="446.173" height="150" filterUnits="userSpaceOnUse" color-interpolation-filters="sRGB">
<feFlood flood-opacity="0" result="BackgroundImageFix"/>
<feColorMatrix in="SourceAlpha" type="matrix" values="0 0 0 0 0 0 0 0 0 0 0 0 0 0 0 0 0 0 127 0"/>
<feOffset dy="4"/>
<feGaussianBlur stdDeviation="2"/>
<feColorMatrix type="matrix" values="0 0 0 0 0 0 0 0 0 0 0 0 0 0 0 0 0 0 0.25 0"/>
<feBlend mode="normal" in2="BackgroundImageFix" result="effect1_dropShadow"/>
<feBlend mode="normal" in="SourceGraphic" in2="effect1_dropShadow" result="shape"/>
</filter>
<filter id="filter1_d" x="275.185" y="407.72" width="223.435" height="34.64" filterUnits="userSpaceOnUse" color-interpolation-filters="sRGB">
<feFlood flood-opacity="0" result="BackgroundImageFix"/>
<feColorMatrix in="SourceAlpha" type="matrix" values="0 0 0 0 0 0 0 0 0 0 0 0 0 0 0 0 0 0 127 0"/>
<feOffset dy="4"/>
<feGaussianBlur stdDeviation="2"/>
<feColorMatrix type="matrix" values="0 0 0 0 0 0 0 0 0 0 0 0 0 0 0 0 0 0 0.25 0"/>
<feBlend mode="normal" in2="BackgroundImageFix" result="effect1_dropShadow"/>
<feBlend mode="normal" in="SourceGraphic" in2="effect1_dropShadow" result="shape"/>
</filter>
<linearGradient id="paint0_linear" x1="518.354" y1="596.965" x2="518.354" y2="242.376" gradientUnits="userSpaceOnUse">
<stop stop-color="#808080" stop-opacity="0.25"/>
<stop offset="0.54" stop-color="#808080" stop-opacity="0.12"/>
<stop offset="1" stop-color="#808080" stop-opacity="0.1"/>
</linearGradient>
<linearGradient id="paint1_linear" x1="-68023.9" y1="174453" x2="-86233.1" y2="106833" gradientUnits="userSpaceOnUse">
<stop stop-color="#808080" stop-opacity="0.25"/>
<stop offset="0.54" stop-color="#808080" stop-opacity="0.12"/>
<stop offset="1" stop-color="#808080" stop-opacity="0.1"/>
</linearGradient>
</defs>
</svg>
