<svg width="65" height="50" viewBox="0 0 1024 785" fill="none" xmlns="http://www.w3.org/2000/svg">
<g clip-path="url(#clip0)">
<path opacity="0.1" d="M849.216 115.433C854.696 122.083 856.806 131.433 859.165 140.224C878.164 211.065 924.98 268.047 978.295 308.748C1000.87 325.988 1028.36 349.109 1023.42 380.02C1020.76 396.62 1009.09 408.84 1000.42 422.361C982.235 450.671 976.335 489.152 985.004 523.043C994.864 561.604 1022.42 597.585 1013.89 636.576C1008.63 660.577 990.774 677.657 973.605 692.338C946.821 715.225 919.184 736.665 890.693 756.659C871.594 770.06 851.276 783.1 829.018 784.8C809.42 786.3 790.222 778.85 771.613 771.5C755.355 765.069 738.686 758.379 725.557 745.499C716.988 737.089 710.159 726.239 700.639 719.358C678.281 703.198 649.564 713.438 623.926 720.358C563.431 736.599 498.687 730.669 441.122 703.618C352.82 662.117 285.516 574.965 199.143 528.203C162.007 508.093 121.61 495.613 87.2233 469.712C67.8502 454.965 51.2015 436.947 38.0276 416.471C12.0299 376.36 -2.02881 325.218 2.03082 275.157C6.09045 225.096 28.8385 176.855 64.5654 148.594C102.812 118.343 151.118 112.693 194.634 94.5324C239.55 75.7519 279.526 43.4911 324.013 23.3806C360.032 7.13368 399.233 -0.840271 438.737 0.0439993C478.241 0.92827 517.045 10.6483 552.302 28.4907C600.748 52.9913 649.834 110.153 703.789 114.493C742.226 117.493 819.199 79.012 849.216 115.433Z" fill="#6C63FF"/>
<path d="M155.946 347.089C155.946 347.089 170.505 297.638 153.216 261.247C145.864 246.027 143.646 228.833 146.897 212.245C148.503 204.383 150.826 196.684 153.836 189.245" stroke="#535461" stroke-width="2" stroke-miterlimit="10"/>
<path d="M143.027 166.254C143.027 172.314 154.026 189.885 154.026 189.885C154.026 189.885 165.025 172.314 165.025 166.254C165.137 164.745 164.936 163.23 164.436 161.802C163.935 160.374 163.145 159.065 162.116 157.957C161.086 156.848 159.839 155.964 158.452 155.359C157.066 154.754 155.569 154.442 154.056 154.442C152.543 154.442 151.047 154.754 149.66 155.359C148.273 155.964 147.026 156.848 145.997 157.957C144.967 159.065 144.178 160.374 143.677 161.802C143.176 163.23 142.976 164.745 143.087 166.254H143.027Z" fill="#6C63FF"/>
<path d="M124.939 199.815C128.229 204.905 147.027 213.695 147.027 213.695C147.027 213.695 146.687 192.985 143.398 187.895C141.724 185.67 139.27 184.162 136.529 183.676C133.788 183.19 130.965 183.761 128.628 185.274C126.292 186.788 124.616 189.131 123.939 191.831C123.262 194.531 123.633 197.388 124.979 199.825L124.939 199.815Z" fill="#6C63FF"/>
<path d="M125.729 257.187C131.138 259.917 151.727 258.027 151.727 258.027C151.727 258.027 140.978 240.316 135.568 237.586C133.003 236.521 130.131 236.466 127.527 237.432C124.923 238.397 122.781 240.312 121.53 242.792C120.279 245.272 120.013 248.133 120.785 250.801C121.556 253.469 123.308 255.747 125.689 257.177L125.729 257.187Z" fill="#6C63FF"/>
<path d="M136.098 300.498C140.968 304.098 161.626 305.728 161.626 305.728C161.626 305.728 154.026 286.457 149.147 282.847C146.799 281.42 144.001 280.924 141.306 281.456C138.61 281.988 136.211 283.51 134.581 285.722C132.951 287.934 132.207 290.676 132.498 293.409C132.788 296.142 134.09 298.667 136.148 300.488L136.098 300.498Z" fill="#6C63FF"/>
<path d="M170.025 214.865C165.675 219.086 145.427 223.466 145.427 223.466C145.427 223.466 150.427 203.355 154.736 199.125C155.742 197.998 156.969 197.09 158.341 196.457C159.713 195.825 161.2 195.482 162.711 195.45C164.221 195.418 165.722 195.697 167.119 196.271C168.517 196.844 169.781 197.7 170.834 198.783C171.886 199.867 172.704 201.156 173.237 202.569C173.769 203.983 174.005 205.491 173.929 207C173.853 208.509 173.468 209.986 172.796 211.339C172.124 212.693 171.181 213.893 170.025 214.865Z" fill="#6C63FF"/>
<path d="M181.514 265.627C176.105 268.357 155.516 266.467 155.516 266.467C155.516 266.467 166.265 248.756 171.675 246.026C174.24 244.961 177.113 244.906 179.716 245.872C182.32 246.837 184.462 248.752 185.713 251.232C186.964 253.712 187.23 256.573 186.458 259.241C185.687 261.91 183.935 264.187 181.554 265.617L181.514 265.627Z" fill="#6C63FF"/>
<path d="M185.914 316.498C181.044 320.098 160.386 321.728 160.386 321.728C160.386 321.728 167.985 302.458 172.865 298.848C174.009 297.836 175.35 297.073 176.805 296.609C178.259 296.144 179.795 295.987 181.313 296.148C182.831 296.31 184.3 296.785 185.624 297.545C186.949 298.305 188.1 299.332 189.006 300.561C189.912 301.791 190.552 303.195 190.886 304.685C191.219 306.175 191.239 307.719 190.943 309.217C190.647 310.715 190.043 312.135 189.169 313.387C188.294 314.639 187.169 315.695 185.864 316.488L185.914 316.498Z" fill="#6C63FF"/>
<path opacity="0.1" d="M143.027 166.254C143.027 172.314 154.026 189.885 154.026 189.885C154.026 189.885 165.025 172.314 165.025 166.254C165.137 164.745 164.936 163.23 164.436 161.802C163.935 160.374 163.145 159.065 162.116 157.957C161.086 156.848 159.839 155.964 158.452 155.359C157.066 154.754 155.569 154.442 154.056 154.442C152.543 154.442 151.047 154.754 149.66 155.359C148.273 155.964 147.026 156.848 145.997 157.957C144.967 159.065 144.178 160.374 143.677 161.802C143.176 163.23 142.976 164.745 143.087 166.254H143.027Z" fill="#6C63FF"/>
<path opacity="0.1" d="M124.939 199.815C128.229 204.905 147.027 213.695 147.027 213.695C147.027 213.695 146.687 192.985 143.398 187.895C141.724 185.67 139.27 184.162 136.529 183.676C133.788 183.19 130.965 183.761 128.628 185.274C126.292 186.788 124.616 189.131 123.939 191.831C123.262 194.531 123.633 197.388 124.979 199.825L124.939 199.815Z" fill="#6C63FF"/>
<path opacity="0.1" d="M125.729 257.187C131.138 259.917 151.727 258.027 151.727 258.027C151.727 258.027 140.978 240.316 135.568 237.586C133.003 236.521 130.131 236.466 127.527 237.432C124.923 238.397 122.781 240.312 121.53 242.792C120.279 245.272 120.013 248.133 120.785 250.801C121.556 253.469 123.308 255.747 125.689 257.177L125.729 257.187Z" fill="#6C63FF"/>
<path opacity="0.1" d="M136.098 300.498C140.968 304.098 161.626 305.728 161.626 305.728C161.626 305.728 154.026 286.457 149.147 282.847C146.799 281.42 144.001 280.924 141.306 281.456C138.61 281.988 136.211 283.51 134.581 285.722C132.951 287.934 132.207 290.676 132.498 293.409C132.788 296.142 134.09 298.667 136.148 300.488L136.098 300.498Z" fill="#6C63FF"/>
<path opacity="0.1" d="M170.025 214.865C165.675 219.086 145.427 223.466 145.427 223.466C145.427 223.466 150.427 203.355 154.736 199.125C155.742 197.998 156.969 197.09 158.341 196.457C159.713 195.825 161.2 195.482 162.711 195.45C164.221 195.418 165.722 195.697 167.119 196.271C168.517 196.844 169.781 197.7 170.834 198.783C171.886 199.867 172.704 201.156 173.237 202.569C173.769 203.983 174.005 205.491 173.929 207C173.853 208.509 173.468 209.986 172.796 211.339C172.124 212.693 171.181 213.893 170.025 214.865Z" fill="#6C63FF"/>
<path opacity="0.1" d="M181.514 265.627C176.105 268.357 155.516 266.467 155.516 266.467C155.516 266.467 166.265 248.756 171.675 246.026C174.24 244.961 177.113 244.906 179.716 245.872C182.32 246.837 184.462 248.752 185.713 251.232C186.964 253.712 187.23 256.573 186.458 259.241C185.687 261.91 183.935 264.187 181.554 265.617L181.514 265.627Z" fill="#6C63FF"/>
<path opacity="0.1" d="M185.914 316.498C181.044 320.098 160.386 321.728 160.386 321.728C160.386 321.728 167.985 302.458 172.865 298.848C174.009 297.836 175.35 297.073 176.805 296.609C178.259 296.144 179.795 295.987 181.313 296.148C182.831 296.31 184.3 296.785 185.624 297.545C186.949 298.305 188.1 299.332 189.006 300.561C189.912 301.791 190.552 303.195 190.886 304.685C191.219 306.175 191.239 307.719 190.943 309.217C190.647 310.715 190.043 312.135 189.169 313.387C188.294 314.639 187.169 315.695 185.864 316.488L185.914 316.498Z" fill="#6C63FF"/>
<path d="M94.9513 426.091C94.9513 426.091 109.51 376.64 92.2216 340.249C84.8687 325.029 82.6512 307.835 85.9021 291.247C87.5078 283.385 89.8307 275.686 92.8415 268.247" stroke="#535461" stroke-width="2" stroke-miterlimit="10"/>
<path d="M82.033 245.256C82.033 251.316 93.0319 268.887 93.0319 268.887C93.0319 268.887 104.031 251.316 104.031 245.256C104.143 243.747 103.942 242.232 103.441 240.804C102.94 239.376 102.151 238.067 101.121 236.959C100.092 235.85 98.8447 234.966 97.458 234.361C96.0713 233.756 94.5748 233.444 93.062 233.444C91.5492 233.444 90.0526 233.756 88.6659 234.361C87.2792 234.966 86.032 235.85 85.0025 236.959C83.973 238.067 83.1833 239.376 82.6827 240.804C82.182 242.232 81.9814 243.747 82.093 245.256H82.033Z" fill="#6C63FF"/>
<path d="M63.9445 278.817C67.2342 283.907 85.9924 292.687 85.9924 292.687C85.9924 292.687 85.6525 271.977 82.3627 266.887C81.6331 265.565 80.6393 264.408 79.4432 263.488C78.2471 262.567 76.8743 261.902 75.4102 261.535C73.9462 261.168 72.4223 261.106 70.9333 261.353C69.4443 261.6 68.0221 262.151 66.7552 262.972C65.4884 263.792 64.4039 264.865 63.5694 266.123C62.7348 267.381 62.1681 268.797 61.9045 270.283C61.6408 271.769 61.6858 273.294 62.0368 274.762C62.3877 276.231 63.0371 277.611 63.9445 278.817Z" fill="#6C63FF"/>
<path d="M64.7343 336.189C70.1438 338.919 90.732 337.029 90.732 337.029C90.732 337.029 79.983 319.318 74.5735 316.588C73.2767 315.809 71.8333 315.307 70.3334 315.111C68.8336 314.916 67.3095 315.031 65.8564 315.452C64.4034 315.872 63.0526 316.587 61.8885 317.553C60.7245 318.519 59.7722 319.715 59.0911 321.066C58.4099 322.416 58.0147 323.893 57.93 325.403C57.8454 326.914 58.073 328.425 58.5989 329.844C59.1248 331.262 59.9375 332.557 60.9863 333.647C62.0351 334.737 63.2975 335.599 64.6944 336.179L64.7343 336.189Z" fill="#6C63FF"/>
<path d="M75.1031 379.5C79.9727 383.1 100.631 384.73 100.631 384.73C100.631 384.73 93.0316 365.459 88.1521 361.849C85.8038 360.422 83.0066 359.926 80.3108 360.458C77.615 360.99 75.216 362.512 73.5859 364.724C71.9558 366.936 71.2127 369.678 71.5027 372.411C71.7927 375.144 73.095 377.669 75.1532 379.49L75.1031 379.5Z" fill="#6C63FF"/>
<path d="M109.03 293.867C104.681 298.088 84.4325 302.468 84.4325 302.468C84.4325 302.468 89.4321 282.357 93.7417 278.127C95.8699 276.336 98.5973 275.419 101.375 275.558C104.153 275.698 106.774 276.885 108.712 278.88C110.65 280.875 111.76 283.53 111.819 286.311C111.878 289.092 110.882 291.792 109.03 293.867Z" fill="#6C63FF"/>
<path d="M120.519 344.629C115.11 347.359 94.5216 345.469 94.5216 345.469C94.5216 345.469 105.271 327.758 110.68 325.028C113.245 323.963 116.118 323.908 118.722 324.874C121.325 325.839 123.468 327.754 124.718 330.234C125.969 332.714 126.235 335.575 125.464 338.243C124.692 340.912 122.94 343.189 120.559 344.619L120.519 344.629Z" fill="#6C63FF"/>
<path d="M124.919 395.5C120.049 399.1 99.3911 400.73 99.3911 400.73C99.3911 400.73 106.991 381.46 111.87 377.85C113.014 376.838 114.356 376.075 115.81 375.611C117.265 375.146 118.8 374.989 120.318 375.15C121.837 375.312 123.305 375.787 124.629 376.547C125.954 377.307 127.106 378.334 128.012 379.563C128.917 380.793 129.557 382.197 129.891 383.687C130.224 385.177 130.244 386.721 129.948 388.219C129.653 389.717 129.048 391.137 128.174 392.389C127.299 393.641 126.174 394.697 124.869 395.49L124.919 395.5Z" fill="#6C63FF"/>
<path opacity="0.1" d="M82.033 245.256C82.033 251.316 93.0319 268.887 93.0319 268.887C93.0319 268.887 104.031 251.316 104.031 245.256C104.143 243.747 103.942 242.232 103.441 240.804C102.94 239.376 102.151 238.067 101.121 236.959C100.092 235.85 98.8447 234.966 97.458 234.361C96.0713 233.756 94.5748 233.444 93.062 233.444C91.5492 233.444 90.0526 233.756 88.6659 234.361C87.2792 234.966 86.032 235.85 85.0025 236.959C83.973 238.067 83.1833 239.376 82.6827 240.804C82.182 242.232 81.9814 243.747 82.093 245.256H82.033Z" fill="#6C63FF"/>
<path opacity="0.1" d="M63.9445 278.817C67.2342 283.907 85.9924 292.687 85.9924 292.687C85.9924 292.687 85.6525 271.977 82.3627 266.887C81.6331 265.565 80.6393 264.408 79.4432 263.488C78.2471 262.567 76.8743 261.902 75.4102 261.535C73.9462 261.168 72.4223 261.106 70.9333 261.353C69.4443 261.6 68.0221 262.151 66.7552 262.972C65.4884 263.792 64.4039 264.865 63.5694 266.123C62.7348 267.381 62.1681 268.797 61.9045 270.283C61.6408 271.769 61.6858 273.294 62.0368 274.762C62.3877 276.231 63.0371 277.611 63.9445 278.817Z" fill="#6C63FF"/>
<path opacity="0.1" d="M64.7343 336.189C70.1438 338.919 90.732 337.029 90.732 337.029C90.732 337.029 79.983 319.318 74.5735 316.588C73.2767 315.809 71.8333 315.307 70.3334 315.111C68.8336 314.916 67.3095 315.031 65.8564 315.452C64.4034 315.872 63.0526 316.587 61.8885 317.553C60.7245 318.519 59.7722 319.715 59.0911 321.066C58.4099 322.416 58.0147 323.893 57.93 325.403C57.8454 326.914 58.073 328.425 58.5989 329.844C59.1248 331.262 59.9375 332.557 60.9863 333.647C62.0351 334.737 63.2975 335.599 64.6944 336.179L64.7343 336.189Z" fill="#6C63FF"/>
<path opacity="0.1" d="M75.1031 379.5C79.9727 383.1 100.631 384.73 100.631 384.73C100.631 384.73 93.0316 365.459 88.1521 361.849C85.8038 360.422 83.0066 359.926 80.3108 360.458C77.615 360.99 75.216 362.512 73.5859 364.724C71.9558 366.936 71.2127 369.678 71.5027 372.411C71.7927 375.144 73.095 377.669 75.1532 379.49L75.1031 379.5Z" fill="#6C63FF"/>
<path opacity="0.1" d="M109.03 293.867C104.681 298.088 84.4325 302.468 84.4325 302.468C84.4325 302.468 89.4321 282.357 93.7417 278.127C95.8699 276.336 98.5973 275.419 101.375 275.558C104.153 275.698 106.774 276.885 108.712 278.88C110.65 280.875 111.76 283.53 111.819 286.311C111.878 289.092 110.882 291.792 109.03 293.867Z" fill="#6C63FF"/>
<path opacity="0.1" d="M120.519 344.629C115.11 347.359 94.5216 345.469 94.5216 345.469C94.5216 345.469 105.271 327.758 110.68 325.028C113.245 323.963 116.118 323.908 118.722 324.874C121.325 325.839 123.468 327.754 124.718 330.234C125.969 332.714 126.235 335.575 125.464 338.243C124.692 340.912 122.94 343.189 120.559 344.619L120.519 344.629Z" fill="#6C63FF"/>
<path opacity="0.1" d="M124.919 395.5C120.049 399.1 99.3911 400.73 99.3911 400.73C99.3911 400.73 106.991 381.46 111.87 377.85C113.014 376.838 114.356 376.075 115.81 375.611C117.265 375.146 118.8 374.989 120.318 375.15C121.837 375.312 123.305 375.787 124.629 376.547C125.954 377.307 127.106 378.334 128.012 379.563C128.917 380.793 129.557 382.197 129.891 383.687C130.224 385.177 130.244 386.721 129.948 388.219C129.653 389.717 129.048 391.137 128.174 392.389C127.299 393.641 126.174 394.697 124.869 395.49L124.919 395.5Z" fill="#6C63FF"/>
<path opacity="0.1" d="M484.104 591.426C212.511 564.936 -4.20329 508.018 0.0601346 464.296C4.32356 420.573 227.95 406.603 499.543 433.093C771.137 459.582 987.851 516.5 983.587 560.223C979.324 603.945 755.698 617.915 484.104 591.426Z" fill="#6C63FF"/>
<path d="M42.856 471.262C24.3676 433.361 28.1874 371.669 30.1572 350.729C30.5872 346.149 30.9271 343.519 30.9271 343.519C30.9271 343.519 47.2257 340.949 41.2162 321.218C38.2766 311.558 48.7155 306.218 60.1145 303.288C68.2648 301.338 76.5811 300.163 84.9524 299.778L242.828 290.027C264.477 255.667 307.073 261.187 307.073 261.187C307.073 261.187 345.07 257.237 372.007 256.827C376.095 253.224 380.577 250.095 385.366 247.496C388.22 245.781 391.259 244.396 394.425 243.366C398.275 242.255 402.331 242.061 406.269 242.799C410.207 243.537 413.917 245.187 417.103 247.616C418.656 248.733 419.921 250.204 420.793 251.906C421.129 252.681 421.38 253.489 421.543 254.316C421.949 255.729 422.283 257.16 422.543 258.607C422.777 259.303 423.114 259.96 423.543 260.557C424.622 262.087 426.482 263.237 426.722 265.087C426.728 265.193 426.728 265.3 426.722 265.407C426.92 265.76 427.052 266.146 427.112 266.547C427.184 267.37 427.007 268.196 426.602 268.917C426.542 269.037 426.472 269.147 426.402 269.257C427.732 271.182 428.817 273.264 429.632 275.457C430.002 275.658 430.359 275.882 430.702 276.127L431.002 276.347V276.957L431.172 277.087L431.542 286.937L431.332 287.097C431.029 291.692 429.643 296.15 427.286 300.107C424.93 304.063 421.67 307.404 417.773 309.858C417.643 310.488 417.523 311.128 417.403 311.798C416.854 315.028 416.606 318.302 416.663 321.578H416.833C421.533 319.578 429.572 322.518 436.481 325.948H525.994C508.535 303.488 487.177 286.067 487.177 286.067V266.327C502.436 265.567 636.484 329.968 665.871 344.189L667.171 344.819L818.208 349.499C845.566 349.329 869.483 353.349 890.202 359.899C924.823 370.776 955.934 390.654 980.354 417.501C998.192 437.081 1006.01 453.262 1006.01 453.262L1005.84 454.622L1006.01 454.972L1005.77 455.182L1001.7 487.302L998.902 509.403C1018.36 521.983 993.153 527.023 993.153 527.023C969.155 547.604 930.548 546.754 930.548 546.754C921.119 559.624 893.671 557.904 893.671 557.904H749.594C747.35 544.675 744.345 531.586 740.595 518.703C734.445 562.994 699.498 596.925 657.322 596.925C654.194 596.923 651.068 596.733 647.963 596.355C644.858 596.733 641.732 596.923 638.604 596.925C595.938 596.925 560.681 562.194 555.131 517.163H548.082C549.398 527.224 551.685 537.134 554.911 546.754C425.412 509.013 184.424 491.002 184.424 491.002C183.424 481.502 182.324 472.322 181.134 463.512C171.205 488.162 148.697 505.373 122.499 505.373C120.119 505.37 117.742 505.223 115.38 504.933C113.018 505.223 110.64 505.37 108.26 505.373C77.153 505.373 51.2653 481.102 45.4258 448.921C44.6526 454.601 44.2118 460.321 44.1059 466.052C45.2158 471.512 46.1858 475.002 46.3158 475.492C45.5359 474.065 44.796 472.605 44.096 471.112C44.096 471.692 44.096 472.292 44.096 472.892C44.336 473.892 44.5059 474.452 44.5559 474.642L44.1159 473.822C44.1159 474.262 44.1159 474.692 44.1159 475.132C44.2159 475.172 43.6859 473.732 42.856 471.262Z" fill="url(#paint0_linear)"/>
<path d="M57.9651 335.079H354.839V454.852H57.9651V335.079Z" fill="#6F7D95"/>
<path d="M430.322 278.987L388.156 373.46L304.653 368.399L301.283 329.598L298.754 284.047L416.823 275.607L430.322 278.987Z" fill="#4B5C7A"/>
<path d="M430.322 278.987C430.322 278.987 414.324 263.807 394.895 260.427C375.467 257.047 310.553 263.797 310.553 263.797L301.273 279.797L303.013 287.417L430.322 278.987Z" fill="#FF4D52"/>
<path d="M271.346 327.488H570.75V415.211H271.346V327.488Z" fill="#4B5C7A"/>
<path d="M345.01 387.17C337.1 360.719 352.869 343.339 352.869 343.339L379.007 325.098C379.028 325.16 379.055 325.221 379.087 325.278C382.486 321.294 384.919 316.578 386.196 311.498C386.276 311.178 386.346 310.848 386.426 310.498C384.037 308.722 381.944 306.579 380.227 304.148C375.967 301.538 374.067 297.338 373.347 293.147C370.607 289.08 368.424 284.664 366.858 280.017C366.599 279.266 366.379 278.501 366.198 277.727C365.694 276.286 365.47 274.762 365.538 273.237C365.751 271.539 366.316 269.904 367.198 268.437C371.597 260.437 379.517 254.866 387.546 250.326C390.353 248.64 393.341 247.278 396.455 246.266C400.24 245.175 404.228 244.985 408.1 245.711C411.972 246.436 415.62 248.058 418.753 250.446C420.281 251.545 421.525 252.992 422.383 254.667C422.714 255.428 422.962 256.222 423.123 257.037C423.511 258.426 423.828 259.835 424.073 261.257C424.291 261.936 424.607 262.58 425.013 263.167C426.083 264.667 427.902 265.797 428.142 267.627C428.148 267.733 428.148 267.84 428.142 267.947C428.335 268.294 428.464 268.674 428.522 269.067C428.596 269.876 428.422 270.689 428.022 271.397C427.962 271.517 427.892 271.627 427.822 271.737C429.131 273.631 430.199 275.68 431.002 277.837C431.369 278.035 431.723 278.256 432.062 278.497L432.352 278.707V279.307L432.522 279.437L432.892 289.127L432.692 289.287C432.397 293.807 431.035 298.193 428.718 302.085C426.401 305.977 423.195 309.264 419.363 311.678C419.233 312.298 419.113 312.928 419.003 313.588C418.399 317.077 418.158 320.619 418.283 324.158C418.323 323.853 418.323 323.544 418.283 323.238C425.513 319.968 441.281 329.008 447.631 333.009C448.593 333.465 449.491 334.046 450.3 334.739L450.41 334.819C454.78 338.359 463.409 348.199 470.259 373.49C479.758 408.78 478.768 416.781 485.687 424.961C492.607 433.141 499.476 490.773 499.476 490.773L485.547 494.523L483.767 488.802C467.209 503.903 420.843 511.173 420.843 511.173L419.423 506.763C412.314 509.323 400.425 505.433 400.425 505.433C383.046 499.293 376.537 483.712 363.928 463.162C351.319 442.611 345.01 387.17 345.01 387.17ZM415.103 493.503L383.006 393.93C380.097 409.39 392.935 433.741 394.075 449.661C394.785 459.902 406.704 480.252 415.103 493.503Z" fill="url(#paint1_linear)"/>
<path d="M374.947 282.397C374.947 282.397 369.358 303.688 385.946 307.398C402.535 311.108 391.606 297.828 391.606 297.828L375.607 282.237L374.947 282.397Z" fill="#472727"/>
<path d="M444.301 333.138C444.301 333.138 456.64 338.139 465.709 371.819C474.778 405.5 473.878 413.101 480.408 420.931C486.937 428.761 493.627 483.702 493.627 483.702L480.568 487.222L469.199 450.501L437.931 353.499L444.301 333.138Z" fill="#DDE0E4"/>
<path opacity="0.05" d="M444.301 333.138C444.301 333.138 456.64 338.139 465.709 371.819C474.778 405.5 473.878 413.101 480.408 420.931C486.937 428.761 493.627 483.702 493.627 483.702L480.568 487.222L469.199 450.501L437.931 353.499L444.301 333.138Z" fill="black"/>
<path d="M375.787 329.338C375.787 329.338 427.442 355.599 419.883 338.469C416.143 330.008 416.283 321.238 417.373 314.468C417.995 310.48 419.086 306.58 420.623 302.848C420.623 302.848 385.506 275.067 387.566 297.748C388.059 302.629 387.721 307.559 386.566 312.328C383.526 324.358 375.787 329.338 375.787 329.338Z" fill="#DB8B8B"/>
<path opacity="0.1" d="M386.566 312.368C389.888 315.036 393.794 316.88 397.965 317.749C402.136 318.618 406.453 318.487 410.564 317.368C412.968 316.721 415.273 315.749 417.413 314.478C418.035 310.49 419.126 306.59 420.663 302.858C420.663 302.858 385.546 275.077 387.606 297.758C388.09 302.651 387.738 307.592 386.566 312.368Z" fill="black"/>
<path d="M377.015 296.946C373.132 282.525 381.674 267.688 396.093 263.805C410.512 259.922 425.348 268.464 429.23 282.885C433.113 297.305 424.571 312.143 410.152 316.026C395.733 319.909 380.897 311.366 377.015 296.946Z" fill="#DB8B8B"/>
<path opacity="0.1" d="M416.703 276.727C417.445 277.18 418.271 277.479 419.131 277.605C419.991 277.731 420.868 277.682 421.708 277.46C422.549 277.239 423.336 276.85 424.022 276.317C424.709 275.783 425.28 275.117 425.703 274.357C426.074 273.679 426.234 272.906 426.163 272.137C425.933 270.397 424.213 269.317 423.163 267.877C421.533 265.547 421.843 262.357 420.663 259.767C419.851 258.185 418.68 256.815 417.243 255.767C414.321 253.482 410.9 251.921 407.259 251.212C403.618 250.503 399.861 250.665 396.295 251.686C393.378 252.638 390.579 253.924 387.956 255.517C380.437 259.807 373.027 265.057 368.958 272.687C368.133 274.087 367.609 275.643 367.418 277.257C367.373 279 367.679 280.735 368.318 282.357C369.822 286.839 371.917 291.1 374.547 295.028C375.427 293.935 376.532 293.045 377.787 292.417C378.42 292.118 379.132 292.025 379.821 292.153C380.51 292.28 381.142 292.621 381.626 293.127C382.496 294.238 383.026 296.358 384.346 295.858C385.206 295.538 385.196 294.348 385.156 293.427C384.976 289.427 387.156 285.657 390.086 282.957C393.016 280.257 396.645 278.477 400.225 276.727C402.795 275.467 406.224 272.577 409.044 272.067C412.544 271.417 414.194 275.177 416.703 276.727Z" fill="black"/>
<path d="M416.333 275.357C417.075 275.81 417.901 276.109 418.761 276.235C419.621 276.361 420.497 276.312 421.338 276.09C422.179 275.869 422.966 275.48 423.652 274.947C424.339 274.413 424.91 273.747 425.333 272.987C425.703 272.309 425.864 271.536 425.792 270.767C425.563 269.027 423.843 267.947 422.793 266.507C421.163 264.177 421.473 260.987 420.293 258.397C419.481 256.815 418.31 255.445 416.873 254.397C413.951 252.112 410.53 250.551 406.889 249.842C403.248 249.133 399.491 249.295 395.925 250.316C393.007 251.268 390.209 252.554 387.586 254.146C380.067 258.437 372.657 263.687 368.588 271.317C367.763 272.717 367.239 274.273 367.048 275.887C367.003 277.63 367.309 279.365 367.948 280.987C369.452 285.469 371.547 289.73 374.177 293.658C375.057 292.565 376.162 291.674 377.417 291.047C378.05 290.748 378.762 290.655 379.451 290.783C380.14 290.91 380.772 291.251 381.256 291.757C382.126 292.868 382.656 294.988 383.976 294.488C384.836 294.168 384.826 292.978 384.786 292.057C384.606 288.057 386.786 284.287 389.716 281.587C392.645 278.887 396.275 277.107 399.855 275.357C402.425 274.097 405.854 271.207 408.674 270.697C412.174 270.037 413.824 273.807 416.333 275.357Z" fill="#472727"/>
<path d="M402.175 332.918C402.175 332.918 380.787 328.728 379.857 325.298L355.399 342.569C355.399 342.569 340.68 359.059 348.209 384.3C348.209 384.3 354.339 437.191 366.258 456.822C378.177 476.452 385.026 501.883 401.355 507.823C401.355 507.823 417.053 497.703 422.233 497.823C422.233 497.823 395.645 459.292 394.505 444.121C393.366 428.951 381.217 405.69 383.876 390.97L419.873 502.873C419.873 502.873 477.868 493.873 483.748 474.622C483.748 474.622 478.748 467.112 479.678 459.502C480.608 451.891 457.8 394.64 457.8 394.64L446.881 334.939C446.881 334.939 425.283 319.848 416.683 323.768C416.723 323.708 418.283 331.158 402.175 332.918Z" fill="#DDE0E4"/>
<g opacity="0.1">
<path opacity="0.1" d="M394.385 286.497C399.665 279.297 409.734 285.207 411.384 286.237L413.974 285.977C416.233 283.517 423.163 276.977 429.672 281.787L429.952 281.997L430.342 291.227L430.062 291.447C428.182 292.899 426.05 293.991 423.773 294.667C422.331 295.091 420.81 295.167 419.333 294.888C418.241 294.635 417.217 294.146 416.334 293.455C415.451 292.764 414.731 291.888 414.223 290.887L412.874 290.977L411.874 290.787C411.674 291.851 411.249 292.859 410.628 293.746C410.008 294.632 409.205 295.376 408.274 295.928C403.804 298.458 397.275 295.928 397.005 295.878L396.665 295.748L394.265 286.817L394.385 286.497ZM397.775 294.617C399.105 295.067 404.124 296.548 407.494 294.617C408.333 294.092 409.04 293.38 409.56 292.537C410.08 291.694 410.4 290.743 410.494 289.757L410.614 289.027L412.804 289.477L415.003 289.397L415.213 289.817C415.615 290.726 416.219 291.53 416.98 292.168C417.741 292.806 418.639 293.261 419.603 293.497C423.373 294.307 427.732 291.387 428.872 290.557L428.542 282.757C422.883 278.947 416.643 285.127 414.844 287.147L414.654 287.357L411.004 287.717L410.784 287.567C410.684 287.507 401.615 281.417 396.445 286.317C396.189 286.555 395.951 286.812 395.735 287.087L397.775 294.617Z" fill="black"/>
<path opacity="0.1" d="M378.007 291.137L395.005 289.727L396.405 289.457L395.775 287.097C395.991 286.822 396.229 286.565 396.485 286.327L394.425 286.527L380.517 287.887L378.007 291.137Z" fill="black"/>
</g>
<path d="M394.205 285.857C399.485 278.657 409.554 284.567 411.204 285.597L413.794 285.337C416.053 282.877 422.983 276.337 429.492 281.147L429.772 281.357L430.162 290.587L429.882 290.807C428.002 292.259 425.87 293.351 423.593 294.027C422.151 294.451 420.63 294.527 419.153 294.247C418.061 293.995 417.037 293.506 416.154 292.815C415.271 292.124 414.551 291.248 414.044 290.247L412.694 290.337L411.694 290.147C411.494 291.211 411.069 292.219 410.448 293.106C409.828 293.992 409.025 294.736 408.094 295.287C403.625 297.818 397.095 295.287 396.825 295.237L396.485 295.107L394.085 286.177L394.205 285.857ZM397.595 293.977C398.925 294.427 403.945 295.908 407.314 293.977C408.153 293.452 408.86 292.74 409.38 291.897C409.901 291.054 410.22 290.103 410.314 289.117L410.434 288.387L412.624 288.837L414.794 288.697L415.004 289.117C415.398 290.031 415.997 290.842 416.755 291.487C417.513 292.132 418.408 292.594 419.373 292.837C423.143 293.647 427.503 290.727 428.642 289.897L428.312 282.097C422.653 278.287 416.413 284.467 414.614 286.487L414.424 286.697L410.774 287.057L410.554 286.907C410.454 286.847 401.385 280.757 396.215 285.657C395.959 285.895 395.721 286.152 395.505 286.427L397.595 293.977Z" fill="#472727"/>
<path d="M377.847 290.497L394.785 289.087L396.185 288.817L395.555 286.457C395.771 286.182 396.009 285.925 396.265 285.687L394.205 285.887L380.297 287.247L377.847 290.497Z" fill="#472727"/>
<path d="M494.007 395.81H790.881V515.583H494.007V395.81Z" fill="#6F7D95"/>
<path d="M655.012 594.025C609.26 594.025 572.17 553.43 572.17 503.353C572.17 453.276 609.26 412.681 655.012 412.681C700.765 412.681 737.855 453.276 737.855 503.353C737.855 553.43 700.765 594.025 655.012 594.025Z" fill="#4B5C7A"/>
<path opacity="0.05" d="M655.012 594.025C609.26 594.025 572.17 553.43 572.17 503.353C572.17 453.276 609.26 412.681 655.012 412.681C700.765 412.681 737.855 453.276 737.855 503.353C737.855 553.43 700.765 594.025 655.012 594.025Z" fill="black"/>
<path d="M636.604 594.025C590.852 594.025 553.762 553.43 553.762 503.353C553.762 453.276 590.852 412.681 636.604 412.681C682.357 412.681 719.447 453.276 719.447 503.353C719.447 553.43 682.357 594.025 636.604 594.025Z" fill="#4B5C7A"/>
<path opacity="0.05" d="M638.444 540.634C618.11 540.634 601.627 524.148 601.627 503.813C601.627 483.477 618.11 466.992 638.444 466.992C658.777 466.992 675.26 483.477 675.26 503.813C675.26 524.148 658.777 540.634 638.444 540.634Z" fill="black"/>
<path d="M638.444 514.863C632.342 514.863 627.395 509.916 627.395 503.813C627.395 497.71 632.342 492.763 638.444 492.763C644.546 492.763 649.493 497.71 649.493 503.813C649.493 509.916 644.546 514.863 638.444 514.863Z" stroke="#6F7D95" stroke-width="2" stroke-miterlimit="10"/>
<path d="M638.444 487.242C636.92 487.242 635.684 486.007 635.684 484.482C635.684 482.958 636.92 481.722 638.444 481.722C639.968 481.722 641.204 482.958 641.204 484.482C641.204 486.007 639.968 487.242 638.444 487.242Z" fill="#6F7D95"/>
<path d="M621.568 491.927C620.401 490.947 620.248 489.206 621.228 488.038C622.208 486.87 623.948 486.718 625.116 487.698C626.284 488.678 626.436 490.419 625.456 491.586C624.476 492.754 622.736 492.906 621.568 491.927Z" fill="#6F7D95"/>
<path d="M614.979 505.292C614.715 503.791 615.717 502.359 617.218 502.095C618.719 501.83 620.15 502.832 620.415 504.333C620.68 505.835 619.677 507.266 618.176 507.531C616.675 507.795 615.244 506.793 614.979 505.292Z" fill="#6F7D95"/>
<path d="M624.207 521.167C622.887 520.405 622.435 518.717 623.197 517.397C623.959 516.077 625.647 515.624 626.967 516.387C628.287 517.149 628.739 518.837 627.977 520.157C627.215 521.477 625.527 521.929 624.207 521.167Z" fill="#6F7D95"/>
<path d="M638.737 522.661C638.216 521.229 638.954 519.645 640.387 519.124C641.819 518.602 643.402 519.341 643.924 520.773C644.445 522.206 643.707 523.789 642.274 524.311C640.842 524.832 639.258 524.094 638.737 522.661Z" fill="#6F7D95"/>
<path d="M652.765 514.137C651.333 513.616 650.594 512.032 651.115 510.599C651.637 509.167 653.22 508.429 654.653 508.95C656.085 509.471 656.823 511.055 656.302 512.487C655.781 513.92 654.197 514.658 652.765 514.137Z" fill="#6F7D95"/>
<path d="M651.478 496.894C650.716 495.574 651.168 493.886 652.488 493.124C653.808 492.362 655.496 492.814 656.258 494.134C657.02 495.454 656.568 497.142 655.248 497.904C653.928 498.667 652.24 498.214 651.478 496.894Z" fill="#6F7D95"/>
<path d="M41.3464 433.281C44.1762 452.822 52.0454 474.212 52.0454 474.212C51.9921 472.879 51.9588 471.562 51.9455 470.262C51.9455 468.582 51.9455 466.922 51.9455 465.262C52.9454 411.4 82.2928 378.17 101.221 362.259C106.141 358.067 111.432 354.331 117.03 351.099H65.5843C65.5843 351.099 45.346 392.43 41.1263 412.671C39.9064 418.351 40.2465 425.681 41.3464 433.281Z" fill="#FF4D52"/>
<path opacity="0.05" d="M41.3464 433.281C44.1762 452.822 52.0454 474.212 52.0454 474.212C51.9921 472.879 51.9588 471.562 51.9455 470.262C51.9455 468.582 51.9455 466.922 51.9455 465.262C52.9454 411.4 82.2928 378.17 101.221 362.259C106.141 358.067 111.432 354.331 117.03 351.099H65.5843C65.5843 351.099 45.346 392.43 41.1263 412.671C39.9064 418.351 40.2465 425.681 41.3464 433.281Z" fill="black"/>
<path d="M129.059 503.993C94.2624 503.993 66.0543 473.118 66.0543 435.031C66.0543 396.945 94.2624 366.069 129.059 366.069C163.855 366.069 192.063 396.945 192.063 435.031C192.063 473.118 163.855 503.993 129.059 503.993Z" fill="#4B5C7A"/>
<path opacity="0.05" d="M129.059 503.993C94.2624 503.993 66.0543 473.118 66.0543 435.031C66.0543 396.945 94.2624 366.069 129.059 366.069C163.855 366.069 192.063 396.945 192.063 435.031C192.063 473.118 163.855 503.993 129.059 503.993Z" fill="black"/>
<path d="M115.06 503.993C80.2633 503.993 52.0552 473.118 52.0552 435.031C52.0552 396.945 80.2633 366.069 115.06 366.069C149.856 366.069 178.064 396.945 178.064 435.031C178.064 473.118 149.856 503.993 115.06 503.993Z" fill="#4B5C7A"/>
<path opacity="0.05" d="M116.46 463.382C100.997 463.382 88.4622 450.845 88.4622 435.381C88.4622 419.917 100.997 407.38 116.46 407.38C131.922 407.38 144.457 419.917 144.457 435.381C144.457 450.845 131.922 463.382 116.46 463.382Z" fill="black"/>
<path d="M116.46 443.781C111.821 443.781 108.06 440.02 108.06 435.381C108.06 430.742 111.821 426.981 116.46 426.981C121.098 426.981 124.859 430.742 124.859 435.381C124.859 440.02 121.098 443.781 116.46 443.781Z" stroke="#6F7D95" stroke-width="2" stroke-miterlimit="10"/>
<path d="M116.46 422.781C115.3 422.781 114.36 421.841 114.36 420.681C114.36 419.521 115.3 418.581 116.46 418.581C117.619 418.581 118.559 419.521 118.559 420.681C118.559 421.841 117.619 422.781 116.46 422.781Z" fill="#6F7D95"/>
<path d="M103.618 426.341C102.73 425.596 102.614 424.271 103.359 423.383C104.105 422.494 105.429 422.378 106.318 423.124C107.206 423.869 107.322 425.194 106.576 426.082C105.831 426.971 104.507 427.087 103.618 426.341Z" fill="#6F7D95"/>
<path d="M98.6146 436.515C98.4133 435.373 99.1758 434.283 100.318 434.082C101.46 433.881 102.549 434.643 102.75 435.785C102.952 436.928 102.189 438.017 101.047 438.218C99.905 438.42 98.816 437.657 98.6146 436.515Z" fill="#6F7D95"/>
<path d="M105.623 448.586C104.619 448.006 104.275 446.722 104.855 445.717C105.435 444.713 106.719 444.369 107.723 444.949C108.727 445.529 109.072 446.813 108.492 447.818C107.912 448.822 106.628 449.166 105.623 448.586Z" fill="#6F7D95"/>
<path d="M116.678 449.719C116.281 448.629 116.843 447.424 117.933 447.027C119.022 446.631 120.227 447.193 120.624 448.283C121.021 449.372 120.459 450.578 119.369 450.974C118.279 451.371 117.074 450.809 116.678 449.719Z" fill="#6F7D95"/>
<path d="M127.351 443.228C126.261 442.831 125.699 441.626 126.096 440.536C126.492 439.446 127.697 438.884 128.787 439.281C129.877 439.677 130.438 440.883 130.042 441.972C129.645 443.062 128.44 443.624 127.351 443.228Z" fill="#6F7D95"/>
<path d="M126.359 430.117C125.779 429.112 126.123 427.828 127.128 427.248C128.132 426.668 129.416 427.012 129.996 428.017C130.576 429.021 130.232 430.306 129.228 430.886C128.223 431.465 126.939 431.121 126.359 430.117Z" fill="#6F7D95"/>
<path d="M990.333 512.633L997.952 452.742H907.71L861.324 494.073L884.092 547.214C884.092 547.214 975.954 532.034 990.333 512.633Z" fill="#FF4D52"/>
<path opacity="0.05" d="M861.294 494.073L884.062 547.214C884.062 547.214 975.954 532.034 990.333 512.633L990.663 510.023L997.662 454.642L997.732 454.092L997.902 452.752H907.66L861.294 494.073Z" fill="black"/>
<path d="M487.667 268.867V288.267C487.667 288.267 534.303 326.268 545.402 362.119C547.34 367.941 548.071 374.096 547.552 380.21C543.333 419.851 668.982 348.149 668.982 348.149L663.392 345.429C634.505 331.498 502.676 268.107 487.667 268.867Z" fill="#7597CE"/>
<path d="M381.397 362.499C381.397 362.499 337.72 341.039 330.711 325.158C329.771 323.028 328.881 320.878 327.841 318.788C323.512 310.078 314.412 289.647 318.992 279.837C324.891 267.187 304.653 281.527 304.653 281.527L316.462 341.399L345.14 357.399L382.246 362.499" fill="#FF4D52"/>
<path opacity="0.05" d="M381.397 362.499C381.397 362.499 337.72 341.039 330.711 325.158C329.771 323.028 328.881 320.878 327.841 318.788C323.512 310.078 314.412 289.647 318.992 279.837C324.891 267.187 304.653 281.527 304.653 281.527L316.462 341.399L345.14 357.399L382.246 362.499" fill="black"/>
<path opacity="0.05" d="M861.295 494.073L884.063 547.214C884.063 547.214 975.955 532.034 990.333 512.633L990.663 510.023C990.293 509.773 989.903 509.513 989.493 509.263C989.493 509.263 961.666 531.194 898.401 536.264C898.401 536.264 860.405 505.893 922.019 472.162C922.019 472.162 975.615 473.842 997.693 454.652L997.933 454.452L997.763 454.102C997.616 453.815 997.379 453.368 997.053 452.762H907.691L861.295 494.073Z" fill="black"/>
<path opacity="0.05" d="M547.552 380.2C543.333 419.851 668.982 348.149 668.982 348.149L663.392 345.429C659.692 349.369 644.924 362.659 615.396 361.219C596.398 360.289 567.55 361.139 545.352 362.109C547.307 367.927 548.055 374.083 547.552 380.2Z" fill="black"/>
<path opacity="0.05" d="M493.996 395.81V515.583H549.152C545.512 487.722 547.612 447.111 582.989 423.831C596.183 415.205 611.504 410.392 627.26 409.923C643.016 409.454 658.596 413.346 672.281 421.171C695.469 434.411 721.396 461.332 737.875 515.583H790.87V395.81H493.996Z" fill="black"/>
<path opacity="0.05" d="M41.3464 433.281C43.4262 446.501 46.7659 459.342 51.9354 470.282C52.6021 471.755 53.3286 473.192 54.1152 474.592C53.9852 474.102 53.0354 470.682 51.9354 465.302C46.5759 439.101 37.4067 366.599 98.8413 362.459C99.6412 362.409 100.431 362.359 101.221 362.329C106.138 358.112 111.429 354.353 117.03 351.099H65.5843C65.5843 351.099 45.346 392.43 41.1263 412.671C39.9064 418.351 40.2465 425.681 41.3464 433.281Z" fill="black"/>
<path d="M52.4451 473.772C51.6452 470.882 23.1476 366.639 97.1711 361.649C172.235 356.589 181.514 413.1 189.943 489.862C189.943 489.862 426.922 507.573 554.291 544.694C554.291 544.694 523.714 460.892 581.289 422.991C594.483 414.365 609.804 409.552 625.56 409.083C641.316 408.613 656.896 412.506 670.581 420.331C698.978 436.551 731.506 473.332 745.734 555.654H887.442C887.442 555.654 914.439 557.344 923.709 544.654C923.709 544.654 961.705 545.494 985.273 525.253C985.273 525.253 1010.57 520.193 990.333 507.543C990.333 507.543 961.655 529.473 898.401 534.544C898.401 534.544 860.404 504.173 922.019 470.442C922.019 470.442 976.014 472.132 997.922 452.732C997.922 452.732 990.233 436.821 972.684 417.571C948.682 391.165 918.099 371.608 884.062 360.899C861.127 353.808 837.222 350.359 813.218 350.679L664.361 346.039C664.361 346.039 649.983 364.599 615.446 362.909C580.909 361.219 513.395 365.439 513.395 365.439H512.725L373.817 359.149C369.828 358.586 365.883 357.751 362.008 356.649C341.87 351.179 303.673 334.589 310.562 288.257L92.1216 301.758C83.8885 302.136 75.7097 303.291 67.6938 305.208C56.4747 308.088 46.2156 313.348 49.1053 322.848C55.0048 342.249 38.9862 344.779 38.9862 344.779C38.9862 344.779 38.6462 347.369 38.2263 351.869C36.2264 373.089 32.2969 436.891 52.4451 473.772Z" fill="#FF4D52"/>
<path opacity="0.05" d="M720.447 381.05C720.447 381.05 811.539 381.89 871.433 435.051H837.696C837.696 435.051 743.235 410.59 720.467 391.19L720.447 381.05Z" fill="black"/>
<path d="M721.297 380.2C721.297 380.2 812.389 381.04 872.284 434.201H838.547C838.547 434.201 744.085 409.74 721.317 390.34L721.297 380.2Z" fill="#FFEC9F"/>
<path opacity="0.05" d="M883.223 361.749V384.42L959.956 419.851L971.835 418.421C947.836 392.017 917.256 372.46 883.223 361.749Z" fill="black"/>
<path d="M884.072 360.909V383.58L960.816 419.001L972.695 417.571C948.691 391.169 918.109 371.615 884.072 360.909Z" fill="#FFEC9F"/>
<path opacity="0.05" d="M775.272 463.712C775.272 463.712 816.598 489.012 820.818 544.714H797.2C797.2 544.714 787.921 483.982 760.933 463.712H775.272Z" fill="black"/>
<path opacity="0.05" d="M286.935 465.402L501.166 490.703C501.166 490.703 515.335 400.5 512.715 365.409L373.807 359.119C369.823 358.565 365.881 357.74 362.008 356.649V365.019L257.428 339.719C257.428 339.719 239.709 365.859 286.935 465.402Z" fill="black"/>
<path d="M310.553 263.797C310.553 263.797 265.007 257.897 244.769 296.698L309.903 294.187L310.553 263.797Z" fill="#FF4D52"/>
<path opacity="0.05" d="M247.928 310.298C249.718 315.908 248.368 322.078 237.999 326.348C229.37 329.908 219.251 325.788 216.301 316.938C214.581 311.778 215.761 305.938 225.06 301.188C234.36 296.438 244.799 300.498 247.928 310.298Z" fill="black"/>
<path d="M996.322 465.382C996.322 465.382 942.267 493.383 903.47 482.782" stroke="#FF4D52" stroke-miterlimit="10"/>
<path d="M994.413 480.502C994.413 480.502 959.486 507.443 888.892 501.183" stroke="#FF4D52" stroke-miterlimit="10"/>
<path d="M992.803 493.193C992.803 493.193 958.156 523.263 886.962 513.733" stroke="#FF4D52" stroke-miterlimit="10"/>
<path opacity="0.05" d="M247.378 292.167C247.378 292.167 275.556 316.498 301.274 327.498C301.274 327.498 262.217 334.449 247.378 292.167Z" fill="black"/>
<path opacity="0.1" d="M545.892 363.779C545.892 363.779 412.184 376.41 361.588 364.599C361.588 364.599 358.888 366.389 374.997 359.169L545.892 363.779Z" fill="black"/>
<path opacity="0.05" d="M38.2166 351.869C46.5458 346.399 59.7546 335.049 57.9548 322.418C57.0549 316.088 61.5344 310.168 67.6839 305.198C56.4649 308.078 46.2058 313.338 49.0956 322.838C54.9951 342.239 38.9764 344.769 38.9764 344.769C38.9764 344.769 38.6465 347.369 38.2166 351.869Z" fill="black"/>
<path opacity="0.02" d="M737.505 410.32L748.754 446.031L749.024 446.731C750.534 447.071 782.411 454.402 789.291 456.652H789.981L772.172 409.5L771.662 408.14L765.873 408.51L737.505 410.32Z" fill="black"/>
<path d="M883.415 533.29V538.3H885.468V534.96H892.928V538.3H894.981V533.3L883.415 533.29Z" fill="#E82127"/>
<path d="M885.255 531.67H893.136C893.652 531.573 894.124 531.367 894.502 531.075C894.88 530.782 895.148 530.414 895.278 530.01H883.126C883.257 530.413 883.525 530.781 883.903 531.073C884.28 531.366 884.752 531.572 885.268 531.67" fill="#E82127"/>
<path d="M877.222 538.3C877.668 538.164 878.066 537.945 878.379 537.661C878.693 537.376 878.912 537.036 879.02 536.67H869.826V530.01H867.76V538.3H877.209" fill="#E82127"/>
<path d="M852.459 531.64H859.74C860.258 531.538 860.735 531.335 861.127 531.05C861.52 530.765 861.814 530.407 861.984 530.01H850.38V534.87H859.842V536.59H852.42C851.854 536.708 851.326 536.919 850.871 537.208C850.416 537.498 850.044 537.86 849.781 538.27H861.856V533.27H852.408V531.63" fill="#E82127"/>
<path d="M834.492 531.66H842.372C842.889 531.563 843.361 531.357 843.739 531.065C844.116 530.772 844.385 530.404 844.515 530H832.362C832.493 530.403 832.762 530.771 833.14 531.063C833.517 531.356 833.989 531.562 834.505 531.66" fill="#E82127"/>
<path d="M834.492 534.93H842.372C842.889 534.834 843.362 534.629 843.74 534.336C844.118 534.043 844.386 533.674 844.515 533.27H832.362C832.493 533.673 832.762 534.041 833.14 534.333C833.517 534.626 833.989 534.832 834.505 534.93" fill="#E82127"/>
<path d="M834.492 538.3H842.372C842.889 538.203 843.361 537.997 843.739 537.704C844.116 537.412 844.385 537.044 844.515 536.64H832.362C832.493 537.043 832.762 537.411 833.14 537.703C833.517 537.996 833.989 538.202 834.505 538.3" fill="#E82127"/>
<path d="M814 530.02C814.135 530.419 814.403 530.783 814.778 531.073C815.152 531.363 815.619 531.569 816.13 531.67H819.445L819.611 531.72V538.28H821.676V531.72L821.868 531.67H825.183C825.692 531.566 826.157 531.359 826.531 531.07C826.905 530.78 827.174 530.418 827.313 530.02H814Z" fill="#E82127"/>
<path d="M239.899 415.331C239.899 415.331 222.4 449.681 236.659 468.472C250.918 487.262 235.359 538.474 235.359 538.474" stroke="#6C63FF" stroke-miterlimit="10"/>
<path d="M234.719 404.64C234.719 411.26 239.579 416.641 239.579 416.641C239.579 416.641 244.438 411.27 244.438 404.64C244.438 398.01 239.579 392.64 239.579 392.64C239.579 392.64 234.719 398.02 234.719 404.64Z" fill="#6C63FF"/>
<path d="M230.83 415.331C230.83 415.331 248.328 449.681 234.069 468.472C219.811 487.262 235.369 538.474 235.369 538.474" stroke="#6C63FF" stroke-miterlimit="10"/>
<path d="M236.019 404.64C236.019 411.26 231.16 416.641 231.16 416.641C231.16 416.641 226.3 411.27 226.3 404.64C226.3 398.01 231.16 392.64 231.16 392.64C231.16 392.64 236.019 398.02 236.019 404.64Z" fill="#6C63FF"/>
<path opacity="0.1" d="M236.019 404.64C236.019 411.26 231.16 416.641 231.16 416.641C231.16 416.641 226.3 411.27 226.3 404.64C226.3 398.01 231.16 392.64 231.16 392.64C231.16 392.64 236.019 398.02 236.019 404.64Z" fill="black"/>
<path d="M223.7 415.331C223.7 415.331 206.202 449.681 220.461 468.472C234.719 487.262 219.161 538.474 219.161 538.474" stroke="#6C63FF" stroke-miterlimit="10"/>
<path d="M218.521 404.64C218.521 411.26 223.38 416.641 223.38 416.641C223.38 416.641 228.24 411.27 228.24 404.64C228.24 398.01 223.38 392.64 223.38 392.64C223.38 392.64 218.521 398.02 218.521 404.64Z" fill="#6C63FF"/>
<path d="M221.24 432.161C225.83 436.931 233.059 437.431 233.059 437.431C233.059 437.431 232.839 430.191 228.25 425.431C223.66 420.671 216.431 420.161 216.431 420.161C216.431 420.161 216.651 427.391 221.24 432.161Z" fill="#6C63FF"/>
<path d="M220.791 455.862C225.38 460.632 232.61 461.132 232.61 461.132C232.61 461.132 232.39 453.892 227.8 449.131C223.211 444.371 216.021 443.851 216.021 443.851C216.021 443.851 216.201 451.081 220.791 455.862Z" fill="#6C63FF"/>
<path d="M245.678 468.892C241.339 473.892 241.489 481.132 241.489 481.132C241.489 481.132 248.678 480.262 253.018 475.262C257.357 470.262 257.207 463.022 257.207 463.022C257.207 463.022 250.018 463.892 245.678 468.892Z" fill="#6C63FF"/>
<path d="M241.649 418.361C236.129 422.021 234.339 429.041 234.339 429.041C234.339 429.041 241.509 430.121 247.018 426.501C252.528 422.881 254.328 415.821 254.328 415.821C254.328 415.821 247.168 414.701 241.649 418.361Z" fill="#6C63FF"/>
<path opacity="0.1" d="M241.649 418.361C236.129 422.021 234.339 429.041 234.339 429.041C234.339 429.041 241.509 430.121 247.018 426.501C252.528 422.881 254.328 415.821 254.328 415.821C254.328 415.821 247.168 414.701 241.649 418.361Z" fill="black"/>
<path d="M214.631 415.331C214.631 415.331 232.129 449.681 217.871 468.472C203.612 487.262 219.171 538.474 219.171 538.474" stroke="#6C63FF" stroke-miterlimit="10"/>
<path d="M219.811 404.64C219.811 411.26 214.951 416.641 214.951 416.641C214.951 416.641 210.091 411.27 210.091 404.64C210.091 398.01 214.951 392.64 214.951 392.64C214.951 392.64 219.811 398.02 219.811 404.64Z" fill="#6C63FF"/>
<path opacity="0.1" d="M219.811 404.64C219.811 411.26 214.951 416.641 214.951 416.641C214.951 416.641 210.091 411.27 210.091 404.64C210.091 398.01 214.951 392.64 214.951 392.64C214.951 392.64 219.811 398.02 219.811 404.64Z" fill="black"/>
<path d="M218.411 432.671C223.06 437.391 223.41 444.671 223.41 444.671C223.41 444.671 216.181 444.261 211.531 439.541C206.882 434.821 206.532 427.541 206.532 427.541C206.532 427.541 213.771 427.951 218.411 432.671Z" fill="#6C63FF"/>
<path opacity="0.1" d="M218.411 432.671C223.06 437.391 223.41 444.671 223.41 444.671C223.41 444.671 216.181 444.261 211.531 439.541C206.882 434.821 206.532 427.541 206.532 427.541C206.532 427.541 213.771 427.951 218.411 432.671Z" fill="black"/>
<path d="M209.302 465.502C213.951 470.222 214.301 477.502 214.301 477.502C214.301 477.502 207.072 477.092 202.422 472.372C197.773 467.652 197.423 460.372 197.423 460.372C197.423 460.372 204.652 460.762 209.302 465.502Z" fill="#6C63FF"/>
<path d="M222.71 458.272C222.71 458.272 212.181 441.671 197.393 441.271" stroke="#6C63FF" stroke-miterlimit="10"/>
<path d="M230.91 448.241C230.91 448.241 241.439 431.641 256.228 431.241" stroke="#6C63FF" stroke-miterlimit="10"/>
<path d="M232.28 471.942C232.28 471.942 221.751 455.342 206.962 454.942" stroke="#6C63FF" stroke-miterlimit="10"/>
<path d="M197.882 443.911C196.375 443.911 195.153 442.689 195.153 441.181C195.153 439.673 196.375 438.451 197.882 438.451C199.39 438.451 200.612 439.673 200.612 441.181C200.612 442.689 199.39 443.911 197.882 443.911Z" fill="#6C63FF"/>
<path d="M255.977 434.111C254.47 434.111 253.248 432.889 253.248 431.381C253.248 429.873 254.47 428.651 255.977 428.651C257.485 428.651 258.707 429.873 258.707 431.381C258.707 432.889 257.485 434.111 255.977 434.111Z" fill="#6C63FF"/>
<path d="M224.53 477.412C224.53 477.412 235.059 460.812 249.848 460.412" stroke="#6C63FF" stroke-miterlimit="10"/>
<path d="M249.598 463.282C248.09 463.282 246.868 462.06 246.868 460.552C246.868 459.044 248.09 457.822 249.598 457.822C251.106 457.822 252.328 459.044 252.328 460.552C252.328 462.06 251.106 463.282 249.598 463.282Z" fill="#6C63FF"/>
<path d="M206.762 457.812C205.254 457.812 204.032 456.589 204.032 455.082C204.032 453.574 205.254 452.352 206.762 452.352C208.269 452.352 209.492 453.574 209.492 455.082C209.492 456.589 208.269 457.812 206.762 457.812Z" fill="#6C63FF"/>
<path d="M166.316 518.503C166.316 518.503 191.693 513.423 198.463 506.653C205.232 499.883 235.689 488.072 239.069 496.503C242.449 504.933 284.755 533.764 256.018 538.834C227.28 543.904 188.334 545.604 179.874 542.214C171.415 538.824 166.316 518.503 166.316 518.503Z" fill="#A8A8A8"/>
<path opacity="0.2" d="M256.018 535.694C227.25 540.774 188.334 542.464 179.874 539.074C173.435 536.494 168.955 524.073 167.185 518.353L166.336 518.533C166.336 518.533 171.415 538.844 179.874 542.224C188.334 545.604 227.25 543.914 256.018 538.844C264.317 537.374 266.697 533.934 265.797 529.584C265.067 532.414 262.177 534.604 256.018 535.694Z" fill="black"/>
<path d="M910.69 603.165C910.69 603.165 902.311 614.166 914.56 630.666C926.809 647.166 936.908 661.177 932.818 671.507C932.818 671.507 914.34 640.776 899.301 640.346C884.262 639.916 894.151 621.646 910.69 603.165Z" fill="#6C63FF"/>
<path opacity="0.1" d="M910.69 603.165C909.96 604.225 909.384 605.383 908.98 606.605C894.301 623.846 886.492 639.936 900.591 640.346C913.729 640.726 929.488 664.217 933.268 670.157C933.143 670.615 932.993 671.066 932.818 671.507C932.818 671.507 914.339 640.776 899.301 640.346C884.262 639.916 894.151 621.646 910.69 603.165Z" fill="black"/>
<path d="M895.112 617.126C895.112 620.986 895.541 624.126 896.111 624.126C896.681 624.126 897.111 620.996 897.111 617.126C897.111 613.256 896.571 615.126 896.041 615.126C895.511 615.126 895.112 613.276 895.112 617.126Z" fill="#FFD037"/>
<path d="M889.772 621.736C893.161 623.586 896.111 624.736 896.361 624.226C896.611 623.716 894.081 621.876 890.692 620.036C887.302 618.196 888.642 619.536 888.382 620.036C888.122 620.536 886.382 619.886 889.772 621.736Z" fill="#FFD037"/>
<path d="M954.956 603.165C954.956 603.165 963.335 614.166 951.086 630.666C938.838 647.166 928.738 661.177 932.828 671.497C932.828 671.497 951.306 640.766 966.345 640.336C981.384 639.906 971.495 621.646 954.956 603.165Z" fill="#6C63FF"/>
<path opacity="0.1" d="M954.956 603.165C955.686 604.225 956.262 605.383 956.666 606.605C971.345 623.846 979.154 639.936 965.055 640.346C951.916 640.726 936.158 664.217 932.378 670.157C932.503 670.615 932.653 671.066 932.828 671.507C932.828 671.507 951.306 640.776 966.345 640.346C981.384 639.916 971.495 621.646 954.956 603.165Z" fill="black"/>
<path d="M970.535 617.126C970.535 620.986 970.105 624.126 969.535 624.126C968.965 624.126 968.535 620.996 968.535 617.126C968.535 613.256 969.075 615.126 969.605 615.126C970.135 615.126 970.535 613.276 970.535 617.126Z" fill="#FFD037"/>
<path d="M975.874 621.736C972.484 623.586 969.535 624.736 969.285 624.226C969.035 623.716 971.564 621.876 974.954 620.036C978.344 618.196 977.004 619.536 977.264 620.036C977.524 620.536 979.264 619.886 975.874 621.736Z" fill="#FFD037"/>
<path d="M967.865 670.057C967.865 670.057 944.437 669.337 937.377 664.307C930.318 659.277 901.381 653.307 899.591 661.307C897.801 669.307 864.384 701.418 890.832 701.628C917.279 701.838 952.286 697.508 959.335 693.218C966.385 688.928 967.865 670.057 967.865 670.057Z" fill="#A8A8A8"/>
<path opacity="0.2" d="M890.352 698.858C916.799 699.068 951.806 694.738 958.856 690.448C964.225 687.177 966.365 675.447 967.075 670.037H967.855C967.855 670.037 966.375 688.938 959.326 693.228C952.276 697.518 917.269 701.858 890.822 701.638C883.182 701.578 880.553 698.858 880.693 694.838C881.763 697.298 884.672 698.808 890.352 698.858Z" fill="black"/>
</g>
<g filter="url(#filter0_d)">
<path d="M297.476 239V97H390.676V109.4H311.476V161.6H378.276V173.2H311.476V239H297.476ZM415.249 239V97H429.249V239H415.249ZM590.659 239V123.4L539.259 213.2H530.459L478.859 123.4V239H464.859V97H479.259L534.659 194.2L590.459 97H604.659V239H590.659ZM735.649 226.6V239H640.249V97H733.849V109.4H654.249V160.6H723.649V172.4H654.249V226.6H735.649Z" fill="white"/>
</g>
<g filter="url(#filter1_d)">
<path d="M453.778 675.72C450.706 675.72 447.85 675.216 445.21 674.208C442.618 673.152 440.338 671.616 438.37 669.6L440.386 666.144C442.498 668.112 444.61 669.552 446.722 670.464C448.882 671.328 451.162 671.76 453.562 671.76C456.442 671.76 458.794 671.184 460.618 670.032C462.49 668.832 463.426 667.128 463.426 664.92C463.426 663.432 462.97 662.304 462.058 661.536C461.194 660.72 459.922 660.072 458.242 659.592C456.61 659.112 454.642 658.56 452.338 657.936C449.746 657.216 447.562 656.472 445.786 655.704C444.058 654.888 442.738 653.88 441.826 652.68C440.962 651.432 440.53 649.824 440.53 647.856C440.53 645.456 441.13 643.44 442.33 641.808C443.578 640.176 445.258 638.952 447.37 638.136C449.53 637.272 451.93 636.84 454.57 636.84C457.45 636.84 459.994 637.296 462.202 638.208C464.41 639.12 466.21 640.392 467.602 642.024L465.226 645.336C463.93 643.8 462.322 642.672 460.402 641.952C458.53 641.184 456.49 640.8 454.282 640.8C452.746 640.8 451.282 641.016 449.89 641.448C448.498 641.832 447.346 642.504 446.434 643.464C445.57 644.376 445.138 645.648 445.138 647.28C445.138 649.296 445.882 650.688 447.37 651.456C448.858 652.224 451.114 653.04 454.138 653.904C456.97 654.672 459.442 655.44 461.554 656.208C463.666 656.976 465.298 658.008 466.45 659.304C467.602 660.552 468.178 662.304 468.178 664.56C468.178 668.064 466.858 670.8 464.218 672.768C461.578 674.736 458.098 675.72 453.778 675.72ZM492.255 675.72C488.655 675.72 485.439 674.832 482.607 673.056C479.823 671.28 477.639 668.928 476.055 666C474.471 663.024 473.679 659.808 473.679 656.352C473.679 652.848 474.471 649.632 476.055 646.704C477.687 643.728 479.895 641.352 482.679 639.576C485.511 637.752 488.703 636.84 492.255 636.84C495.855 636.84 499.047 637.752 501.831 639.576C504.663 641.352 506.871 643.728 508.455 646.704C510.087 649.632 510.903 652.848 510.903 656.352C510.903 659.808 510.111 663.024 508.527 666C506.943 668.928 504.735 671.28 501.903 673.056C499.119 674.832 495.903 675.72 492.255 675.72ZM478.647 656.424C478.647 659.208 479.247 661.752 480.447 664.056C481.695 666.312 483.351 668.112 485.415 669.456C487.479 670.752 489.759 671.4 492.255 671.4C494.751 671.4 497.031 670.728 499.095 669.384C501.159 668.04 502.815 666.216 504.063 663.912C505.311 661.608 505.935 659.064 505.935 656.28C505.935 653.496 505.311 650.952 504.063 648.648C502.815 646.344 501.159 644.52 499.095 643.176C497.031 641.832 494.751 641.16 492.255 641.16C489.807 641.16 487.551 641.856 485.487 643.248C483.423 644.592 481.767 646.416 480.519 648.72C479.271 651.024 478.647 653.592 478.647 656.424ZM537.451 675.72C534.523 675.72 531.811 674.976 529.315 673.488C526.819 671.952 524.875 670.032 523.483 667.728V675H519.091V622.44H523.987V645.336C525.667 642.792 527.683 640.752 530.035 639.216C532.387 637.632 535.123 636.84 538.243 636.84C540.883 636.84 543.235 637.392 545.299 638.496C547.411 639.6 549.211 641.088 550.699 642.96C552.187 644.784 553.315 646.872 554.083 649.224C554.851 651.528 555.235 653.904 555.235 656.352C555.235 659.856 554.443 663.072 552.859 666C551.323 668.928 549.211 671.28 546.523 673.056C543.835 674.832 540.811 675.72 537.451 675.72ZM536.299 671.4C539.035 671.4 541.435 670.68 543.499 669.24C545.611 667.8 547.267 665.952 548.467 663.696C549.667 661.392 550.267 658.944 550.267 656.352C550.267 653.712 549.691 651.24 548.539 648.936C547.435 646.632 545.875 644.76 543.859 643.32C541.843 641.88 539.515 641.16 536.875 641.16C533.947 641.16 531.355 642.096 529.099 643.968C526.891 645.84 525.187 648.024 523.987 650.52V662.184C524.227 663.912 525.019 665.472 526.363 666.864C527.707 668.256 529.291 669.36 531.115 670.176C532.939 670.992 534.667 671.4 536.299 671.4ZM582.249 641.808C578.985 641.904 576.105 642.816 573.609 644.544C571.161 646.272 569.433 648.648 568.425 651.672V675H563.529V637.488H568.137V646.488C569.433 643.848 571.137 641.712 573.249 640.08C575.409 638.448 577.689 637.536 580.089 637.344C580.569 637.296 580.977 637.272 581.313 637.272C581.649 637.272 581.961 637.296 582.249 637.344V641.808ZM603.846 675.72C600.246 675.72 597.03 674.832 594.198 673.056C591.366 671.28 589.134 668.904 587.502 665.928C585.87 662.952 585.054 659.688 585.054 656.136C585.054 652.632 585.846 649.416 587.43 646.488C589.062 643.56 591.294 641.232 594.126 639.504C596.958 637.728 600.174 636.84 603.774 636.84C607.47 636.84 610.71 637.728 613.494 639.504C616.278 641.28 618.438 643.632 619.974 646.56C621.558 649.44 622.35 652.608 622.35 656.064C622.35 656.832 622.326 657.48 622.278 658.008H590.166C590.406 660.696 591.174 663.096 592.47 665.208C593.766 667.272 595.422 668.928 597.438 670.176C599.454 671.376 601.662 671.976 604.062 671.976C606.51 671.976 608.814 671.352 610.974 670.104C613.134 668.856 614.67 667.224 615.582 665.208L619.83 666.36C619.062 668.184 617.862 669.816 616.23 671.256C614.646 672.648 612.798 673.752 610.686 674.568C608.574 675.336 606.294 675.72 603.846 675.72ZM590.022 654.48H617.742C617.55 651.792 616.806 649.416 615.51 647.352C614.214 645.24 612.558 643.608 610.542 642.456C608.526 641.256 606.294 640.656 603.846 640.656C601.398 640.656 599.166 641.256 597.15 642.456C595.134 643.608 593.478 645.24 592.182 647.352C590.934 649.416 590.214 651.792 590.022 654.48ZM666.975 641.808C663.711 641.904 660.831 642.816 658.335 644.544C655.887 646.272 654.159 648.648 653.151 651.672V675H648.255V637.488H652.863V646.488C654.159 643.848 655.863 641.712 657.975 640.08C660.135 638.448 662.415 637.536 664.815 637.344C665.295 637.296 665.703 637.272 666.039 637.272C666.375 637.272 666.687 637.296 666.975 637.344V641.808ZM673.138 659.52V637.488H678.034V658.656C678.034 667.152 680.938 671.4 686.746 671.4C689.626 671.4 692.314 670.464 694.81 668.592C697.354 666.72 699.178 664.224 700.282 661.104V637.488H705.178V669.096C705.178 670.392 705.754 671.064 706.906 671.112V675C706.33 675.096 705.874 675.144 705.538 675.144C705.25 675.144 704.938 675.144 704.602 675.144C703.594 675.048 702.73 674.664 702.01 673.992C701.338 673.32 701.002 672.504 701.002 671.544L700.858 666.504C699.226 669.432 696.994 671.712 694.162 673.344C691.378 674.928 688.354 675.72 685.09 675.72C677.122 675.72 673.138 670.32 673.138 659.52ZM732.448 675.72C728.848 675.72 725.632 674.832 722.8 673.056C719.968 671.28 717.736 668.904 716.104 665.928C714.472 662.952 713.656 659.688 713.656 656.136C713.656 652.632 714.448 649.416 716.032 646.488C717.664 643.56 719.896 641.232 722.728 639.504C725.56 637.728 728.776 636.84 732.376 636.84C736.072 636.84 739.312 637.728 742.096 639.504C744.88 641.28 747.04 643.632 748.576 646.56C750.16 649.44 750.952 652.608 750.952 656.064C750.952 656.832 750.928 657.48 750.88 658.008H718.768C719.008 660.696 719.776 663.096 721.072 665.208C722.368 667.272 724.024 668.928 726.04 670.176C728.056 671.376 730.264 671.976 732.664 671.976C735.112 671.976 737.416 671.352 739.576 670.104C741.736 668.856 743.272 667.224 744.184 665.208L748.432 666.36C747.664 668.184 746.464 669.816 744.832 671.256C743.248 672.648 741.4 673.752 739.288 674.568C737.176 675.336 734.896 675.72 732.448 675.72ZM718.624 654.48H746.344C746.152 651.792 745.408 649.416 744.112 647.352C742.816 645.24 741.16 643.608 739.144 642.456C737.128 641.256 734.896 640.656 732.448 640.656C730 640.656 727.768 641.256 725.752 642.456C723.736 643.608 722.08 645.24 720.784 647.352C719.536 649.416 718.816 651.792 718.624 654.48ZM755.985 656.352C755.985 652.8 756.705 649.56 758.145 646.632C759.633 643.656 761.673 641.28 764.265 639.504C766.857 637.728 769.809 636.84 773.121 636.84C776.241 636.84 779.025 637.68 781.473 639.36C783.969 640.992 785.913 642.984 787.305 645.336V622.44H792.201V669.096C792.201 670.392 792.777 671.064 793.929 671.112V675C792.969 675.144 792.225 675.192 791.697 675.144C790.641 675.096 789.729 674.712 788.961 673.992C788.241 673.224 787.881 672.36 787.881 671.4V667.728C786.393 670.176 784.377 672.12 781.833 673.56C779.289 675 776.649 675.72 773.913 675.72C771.321 675.72 768.921 675.192 766.713 674.136C764.505 673.08 762.585 671.64 760.953 669.816C759.369 667.992 758.145 665.928 757.281 663.624C756.417 661.272 755.985 658.848 755.985 656.352ZM787.305 662.112V650.52C786.681 648.792 785.673 647.232 784.281 645.84C782.889 644.4 781.305 643.272 779.529 642.456C777.801 641.592 776.073 641.16 774.345 641.16C771.657 641.16 769.305 641.904 767.289 643.392C765.321 644.832 763.785 646.728 762.681 649.08C761.577 651.384 761.025 653.808 761.025 656.352C761.025 659.04 761.625 661.536 762.825 663.84C764.073 666.144 765.753 667.992 767.865 669.384C769.977 670.728 772.353 671.4 774.993 671.4C776.625 671.4 778.329 670.992 780.105 670.176C781.929 669.312 783.513 668.184 784.857 666.792C786.249 665.4 787.065 663.84 787.305 662.112ZM800.271 664.2C800.271 661.896 800.943 659.904 802.287 658.224C803.631 656.496 805.479 655.152 807.831 654.192C810.231 653.232 812.991 652.752 816.111 652.752C817.935 652.752 819.831 652.92 821.799 653.256C823.767 653.544 825.519 653.952 827.055 654.48V651.312C827.055 648.144 826.119 645.624 824.247 643.752C822.375 641.88 819.783 640.944 816.471 640.944C814.503 640.944 812.535 641.328 810.567 642.096C808.599 642.816 806.559 643.896 804.447 645.336L802.575 641.88C805.023 640.2 807.423 638.952 809.775 638.136C812.127 637.272 814.527 636.84 816.975 636.84C821.583 636.84 825.231 638.16 827.919 640.8C830.607 643.44 831.951 647.088 831.951 651.744V669.096C831.951 670.392 832.551 671.064 833.751 671.112V675C832.695 675.144 831.951 675.192 831.519 675.144C830.319 675.096 829.407 674.712 828.783 673.992C828.159 673.272 827.823 672.504 827.775 671.688L827.703 668.952C826.023 671.112 823.839 672.792 821.151 673.992C818.463 675.144 815.727 675.72 812.943 675.72C810.495 675.72 808.311 675.216 806.391 674.208C804.471 673.152 802.959 671.76 801.855 670.032C800.799 668.256 800.271 666.312 800.271 664.2ZM825.399 667.08C826.503 665.784 827.055 664.584 827.055 663.48V658.008C823.743 656.712 820.287 656.064 816.687 656.064C813.183 656.064 810.351 656.76 808.191 658.152C806.031 659.544 804.951 661.44 804.951 663.84C804.951 665.904 805.743 667.776 807.327 669.456C808.959 671.136 811.215 671.976 814.095 671.976C816.447 671.976 818.631 671.52 820.647 670.608C822.711 669.696 824.295 668.52 825.399 667.08ZM854.841 675.72C851.769 675.72 848.913 675.216 846.273 674.208C843.681 673.152 841.401 671.616 839.433 669.6L841.449 666.144C843.561 668.112 845.673 669.552 847.785 670.464C849.945 671.328 852.225 671.76 854.625 671.76C857.505 671.76 859.857 671.184 861.681 670.032C863.553 668.832 864.489 667.128 864.489 664.92C864.489 663.432 864.033 662.304 863.121 661.536C862.257 660.72 860.985 660.072 859.305 659.592C857.673 659.112 855.705 658.56 853.401 657.936C850.809 657.216 848.625 656.472 846.849 655.704C845.121 654.888 843.801 653.88 842.889 652.68C842.025 651.432 841.593 649.824 841.593 647.856C841.593 645.456 842.193 643.44 843.393 641.808C844.641 640.176 846.321 638.952 848.433 638.136C850.593 637.272 852.993 636.84 855.633 636.84C858.513 636.84 861.057 637.296 863.265 638.208C865.473 639.12 867.273 640.392 868.665 642.024L866.289 645.336C864.993 643.8 863.385 642.672 861.465 641.952C859.593 641.184 857.553 640.8 855.345 640.8C853.809 640.8 852.345 641.016 850.953 641.448C849.561 641.832 848.409 642.504 847.497 643.464C846.633 644.376 846.201 645.648 846.201 647.28C846.201 649.296 846.945 650.688 848.433 651.456C849.921 652.224 852.177 653.04 855.201 653.904C858.033 654.672 860.505 655.44 862.617 656.208C864.729 656.976 866.361 658.008 867.513 659.304C868.665 660.552 869.241 662.304 869.241 664.56C869.241 668.064 867.921 670.8 865.281 672.768C862.641 674.736 859.161 675.72 854.841 675.72Z" fill="white"/>
</g>
<defs>
<filter id="filter0_d" x="293.476" y="97" width="446.173" height="150" filterUnits="userSpaceOnUse" color-interpolation-filters="sRGB">
<feFlood flood-opacity="0" result="BackgroundImageFix"/>
<feColorMatrix in="SourceAlpha" type="matrix" values="0 0 0 0 0 0 0 0 0 0 0 0 0 0 0 0 0 0 127 0"/>
<feOffset dy="4"/>
<feGaussianBlur stdDeviation="2"/>
<feColorMatrix type="matrix" values="0 0 0 0 0 0 0 0 0 0 0 0 0 0 0 0 0 0 0.25 0"/>
<feBlend mode="normal" in2="BackgroundImageFix" result="effect1_dropShadow"/>
<feBlend mode="normal" in="SourceGraphic" in2="effect1_dropShadow" result="shape"/>
</filter>
<filter id="filter1_d" x="434.37" y="622.44" width="438.871" height="61.28" filterUnits="userSpaceOnUse" color-interpolation-filters="sRGB">
<feFlood flood-opacity="0" result="BackgroundImageFix"/>
<feColorMatrix in="SourceAlpha" type="matrix" values="0 0 0 0 0 0 0 0 0 0 0 0 0 0 0 0 0 0 127 0"/>
<feOffset dy="4"/>
<feGaussianBlur stdDeviation="2"/>
<feColorMatrix type="matrix" values="0 0 0 0 0 0 0 0 0 0 0 0 0 0 0 0 0 0 0.25 0"/>
<feBlend mode="normal" in2="BackgroundImageFix" result="effect1_dropShadow"/>
<feBlend mode="normal" in="SourceGraphic" in2="effect1_dropShadow" result="shape"/>
</filter>
<linearGradient id="paint0_linear" x1="517.354" y1="596.965" x2="517.354" y2="242.376" gradientUnits="userSpaceOnUse">
<stop stop-color="#808080" stop-opacity="0.25"/>
<stop offset="0.54" stop-color="#808080" stop-opacity="0.12"/>
<stop offset="1" stop-color="#808080" stop-opacity="0.1"/>
</linearGradient>
<linearGradient id="paint1_linear" x1="-68024.9" y1="174453" x2="-86234.1" y2="106833" gradientUnits="userSpaceOnUse">
<stop stop-color="#808080" stop-opacity="0.25"/>
<stop offset="0.54" stop-color="#808080" stop-opacity="0.12"/>
<stop offset="1" stop-color="#808080" stop-opacity="0.1"/>
</linearGradient>
<clipPath id="clip0">
<rect width="1024" height="785" fill="white" transform="matrix(-1 0 0 1 1024 0)"/>
</clipPath>
</defs>
</svg>
